M48
; DRILL file {KiCad (5.1.2)-2} date 9/02/2020 9:55:21 PM
; FORMAT={-:-/ absolute / inch / decimal}
; #@! TF.CreationDate,2020-02-09T21:55:21+10:00
; #@! TF.GenerationSoftware,Kicad,Pcbnew,(5.1.2)-2
; #@! TF.FileFunction,NonPlated,1,2,NPTH
FMAT,2
INCH
T1C0.0689
T2C0.1200
T3C0.1260
T4C0.1570
%
G90
G05
T1
X4.6437Y-6.1562
X5.0438Y-6.1562
X13.175Y-6.1562
X13.575Y-6.1562
X10.925Y-6.9062
X11.325Y-6.9062
X7.175Y-6.1562
X7.575Y-6.1562
X6.425Y-6.1562
X6.825Y-6.1562
X10.3625Y-4.6562
X10.7625Y-4.6562
X4.4562Y-5.4062
X4.8563Y-5.4062
X10.175Y-6.1562
X10.575Y-6.1562
X7.55Y-5.4062
X7.95Y-5.4062
X6.6125Y-4.6562
X7.0125Y-4.6562
X11.3Y-5.4062
X11.7Y-5.4062
X6.05Y-6.9062
X6.45Y-6.9062
X9.05Y-5.4062
X9.45Y-5.4062
X11.675Y-6.9062
X12.075Y-6.9062
X12.425Y-6.1562
X12.825Y-6.1562
X4.4562Y-6.9062
X4.8563Y-6.9062
X8.3Y-5.4062
X8.7Y-5.4062
X12.05Y-5.4062
X12.45Y-5.4062
X12.9875Y-5.4062
X13.3875Y-5.4062
X5.8625Y-4.6562
X6.2625Y-4.6562
X9.6125Y-4.6562
X10.0125Y-4.6562
X5.3Y-5.4062
X5.7Y-5.4062
X9.8Y-5.4062
X10.2Y-5.4062
X6.8Y-5.4062
X7.2Y-5.4062
X8.8625Y-4.6562
X9.2625Y-4.6562
X9.425Y-6.1562
X9.825Y-6.1562
X12.425Y-6.9062
X12.825Y-6.9062
X7.925Y-6.1562
X8.325Y-6.1562
X4.3625Y-4.6562
X4.7625Y-4.6562
X10.55Y-5.4062
X10.95Y-5.4062
X8.1125Y-4.6562
X8.5125Y-4.6562
X5.1125Y-4.6562
X5.5125Y-4.6562
X13.175Y-6.9062
X13.575Y-6.9062
X5.3Y-6.9062
X5.7Y-6.9062
X5.675Y-6.1562
X6.075Y-6.1562
X7.3625Y-4.6562
X7.7625Y-4.6562
X12.8937Y-4.6562
X13.2937Y-4.6562
X10.925Y-6.1562
X11.325Y-6.1562
X11.8625Y-4.6562
X12.2625Y-4.6562
X11.1125Y-4.6562
X11.5125Y-4.6562
X8.675Y-6.1562
X9.075Y-6.1562
X9.5187Y-6.9062
X9.9187Y-6.9062
X6.05Y-5.4062
X6.45Y-5.4062
X7.4562Y-6.9062
X7.8563Y-6.9062
X11.675Y-6.1562
X12.075Y-6.1562
T2
X9.2487Y-7.1812
X10.1888Y-7.1812
X7.1863Y-7.1812
X8.1263Y-7.1812
T3
X12.625Y-4.875
X5.0938Y-6.5625
X4.0312Y-4.4375
X12.7188Y-5.7188
X3.4688Y-7.125
X4.0312Y-7.125
X10.5938Y-6.9062
X13.0Y-6.5312
X8.125Y-5.7812
X6.7812Y-6.9062
X8.6875Y-6.9062
X3.4688Y-4.4375
X4.9375Y-5.01
T4
X13.375Y-6.9062
X5.5Y-6.9062
X5.875Y-6.1562
X7.5625Y-4.6562
X13.0938Y-4.6562
X11.125Y-6.1562
X12.0625Y-4.6562
X11.3125Y-4.6562
X8.875Y-6.1562
X9.2487Y-6.5812
X9.7188Y-6.9062
X10.1888Y-6.5812
X6.25Y-5.4062
X7.1863Y-6.5812
X7.6562Y-6.9062
X8.1263Y-6.5812
X11.875Y-6.1562
X4.8438Y-6.1562
X13.375Y-6.1562
X11.125Y-6.9062
X7.375Y-6.1562
X6.625Y-6.1562
X10.5625Y-4.6562
X4.6562Y-5.4062
X10.375Y-6.1562
X7.75Y-5.4062
X6.8125Y-4.6562
X11.5Y-5.4062
X6.25Y-6.9062
X9.25Y-5.4062
X11.875Y-6.9062
X12.625Y-6.1562
X4.6562Y-6.9062
X8.5Y-5.4062
X12.25Y-5.4062
X13.1875Y-5.4062
X6.0625Y-4.6562
X9.8125Y-4.6562
X5.5Y-5.4062
X10.0Y-5.4062
X7.0Y-5.4062
X9.0625Y-4.6562
X9.625Y-6.1562
X12.625Y-6.9062
X8.125Y-6.1562
X4.5625Y-4.6562
X10.75Y-5.4062
X8.3125Y-4.6562
X5.3125Y-4.6562
T0
M30
