M48
; DRILL file {KiCad (5.1.2)-2} date 9/02/2020 9:55:21 PM
; FORMAT={-:-/ absolute / inch / decimal}
; #@! TF.CreationDate,2020-02-09T21:55:21+10:00
; #@! TF.GenerationSoftware,Kicad,Pcbnew,(5.1.2)-2
; #@! TF.FileFunction,Plated,1,2,PTH
FMAT,2
INCH
T1C0.0157
T2C0.0300
T3C0.0394
T4C0.0579
T5C0.0591
%
G90
G05
T1
X3.5938Y-5.9375
X3.675Y-5.125
X3.75Y-4.85
X3.75Y-6.475
X3.9453Y-6.8703
X4.025Y-6.225
X4.25Y-5.025
X4.525Y-6.55
X4.7Y-5.025
X4.95Y-6.475
X5.5984Y-5.5797
X5.75Y-5.0
X6.15Y-6.55
X6.2Y-4.9
X6.35Y-5.5812
X6.55Y-6.55
X7.0984Y-5.5785
X7.25Y-5.0
X7.55Y-6.55
X7.7Y-4.925
X7.8484Y-5.5797
X7.95Y-6.55
X8.5994Y-5.5806
X8.75Y-5.0
X9.2Y-4.925
X9.3484Y-5.5797
X9.575Y-6.525
X10.025Y-6.55
X10.1Y-5.58
X10.25Y-5.0
X10.7Y-4.925
X10.8484Y-5.5797
X11.6Y-5.58
X11.725Y-6.525
X11.75Y-5.025
X12.175Y-6.55
X12.2Y-4.925
X12.3484Y-5.7234
X12.8Y-5.0
X12.875Y-5.775
X13.15Y-6.65
X13.225Y-4.925
X13.4Y-5.725
T2
X8.6875Y-4.5
X8.6875Y-4.8
X11.5Y-6.75
X11.5Y-7.05
X4.2812Y-5.25
X4.2812Y-5.55
X11.5Y-6.0
X11.5Y-6.3
X6.25Y-6.0
X6.25Y-6.3
X8.9375Y-6.75
X8.9375Y-7.05
X5.125Y-5.25
X5.125Y-5.55
X8.4375Y-6.75
X8.4375Y-7.05
X8.125Y-5.25
X8.125Y-5.55
X5.6875Y-4.5
X5.6875Y-4.8
X12.25Y-6.75
X12.25Y-7.05
X8.875Y-5.25
X8.875Y-5.55
X6.4375Y-4.5
X6.4375Y-4.8
X4.2812Y-6.75
X4.2812Y-7.05
X5.875Y-5.25
X5.875Y-5.55
X9.4375Y-4.5
X9.4375Y-4.8
X10.75Y-6.0
X10.75Y-6.3
X12.4375Y-4.5
X12.4375Y-4.8
X13.0Y-6.75
X13.0Y-7.05
X11.875Y-5.25
X11.875Y-5.55
X7.75Y-6.0
X7.75Y-6.3
X6.625Y-5.25
X6.625Y-5.55
X10.0Y-6.0
X10.0Y-6.3
X7.375Y-5.25
X7.375Y-5.55
X7.9375Y-4.5
X7.9375Y-4.8
X12.25Y-6.0
X12.25Y-6.3
X4.4688Y-6.0
X4.4688Y-6.3
X10.1875Y-4.5
X10.1875Y-4.8
X8.5Y-6.0
X8.5Y-6.3
X9.625Y-5.25
X9.625Y-5.55
X7.1875Y-4.5
X7.1875Y-4.8
X13.0Y-6.0
X13.0Y-6.3
X4.2344Y-4.5
X4.2344Y-4.8
X10.375Y-5.25
X10.375Y-5.55
X12.625Y-5.25
X12.625Y-5.55
X5.125Y-6.75
X5.125Y-7.05
X7.0Y-6.0
X7.0Y-6.3
X5.875Y-6.75
X5.875Y-7.05
X11.125Y-5.25
X11.125Y-5.55
X4.9375Y-4.5
X4.9375Y-4.8
X10.75Y-6.75
X10.75Y-7.05
X11.6875Y-4.5
X11.6875Y-4.8
X10.9375Y-4.5
X10.9375Y-4.8
X9.25Y-6.0
X9.25Y-6.3
X5.5Y-6.0
X5.5Y-6.3
T3
X3.45Y-4.7062
X3.45Y-4.8062
X3.45Y-4.9062
X3.45Y-5.0062
X3.45Y-5.1063
X3.45Y-5.2062
X3.45Y-5.3062
X3.45Y-5.4062
X3.45Y-5.5062
X3.45Y-5.6063
X3.45Y-5.7062
X3.45Y-5.8062
X3.55Y-5.8062
X3.65Y-5.8062
X3.75Y-5.8062
X3.85Y-5.8062
X3.95Y-5.8062
X4.05Y-4.7062
X4.05Y-4.8062
X4.05Y-4.9062
X4.05Y-5.0062
X4.05Y-5.1063
X4.05Y-5.2062
X4.05Y-5.3062
X4.05Y-5.4062
X4.05Y-5.5062
X4.05Y-5.6063
X4.05Y-5.7062
X4.05Y-5.8062
X3.6516Y-6.361
X3.6516Y-6.9318
X3.75Y-6.361
X3.8484Y-6.361
X3.8484Y-6.9318
T4
X13.0375Y-5.3062
X13.0891Y-5.2488
X13.2859Y-5.2291
X13.2875Y-5.2062
X5.9125Y-4.5562
X5.9641Y-4.4988
X6.1609Y-4.4791
X6.1625Y-4.4562
X9.6625Y-4.5562
X9.7141Y-4.4988
X9.9109Y-4.4791
X9.9125Y-4.4562
X5.35Y-5.3062
X5.4016Y-5.2488
X5.5984Y-5.2291
X5.6Y-5.2062
X9.85Y-5.3062
X9.9016Y-5.2488
X10.0984Y-5.2291
X10.1Y-5.2062
X6.85Y-5.3062
X6.9016Y-5.2488
X7.0984Y-5.2291
X7.1Y-5.2062
X8.9125Y-4.5562
X8.9641Y-4.4988
X9.1609Y-4.4791
X9.1625Y-4.4562
X9.475Y-6.0562
X9.5266Y-5.9988
X9.7234Y-5.9791
X9.725Y-5.9562
X12.475Y-6.8062
X12.5266Y-6.7488
X12.7234Y-6.7291
X12.725Y-6.7062
X7.975Y-6.0562
X8.0266Y-5.9988
X8.2234Y-5.9791
X8.225Y-5.9562
X4.4125Y-4.5562
X4.4641Y-4.4988
X4.6609Y-4.4791
X4.6625Y-4.4562
X10.6Y-5.3062
X10.6516Y-5.2488
X10.8484Y-5.2291
X10.85Y-5.2062
X8.1625Y-4.5562
X8.2141Y-4.4988
X8.4109Y-4.4791
X8.4125Y-4.4562
X5.1625Y-4.5562
X5.2141Y-4.4988
X5.4109Y-4.4791
X5.4125Y-4.4562
X13.225Y-6.8062
X13.2766Y-6.7488
X13.4734Y-6.7291
X13.475Y-6.7062
X5.35Y-6.8062
X5.4016Y-6.7488
X5.5984Y-6.7291
X5.6Y-6.7062
X5.725Y-6.0562
X5.7766Y-5.9988
X5.9734Y-5.9791
X5.975Y-5.9562
X7.4125Y-4.5562
X7.4641Y-4.4988
X7.6609Y-4.4791
X7.6625Y-4.4562
X12.9437Y-4.5562
X12.9953Y-4.4988
X13.1922Y-4.4791
X13.1937Y-4.4562
X10.975Y-6.0562
X11.0266Y-5.9988
X11.2234Y-5.9791
X11.225Y-5.9562
X11.9125Y-4.5562
X11.9641Y-4.4988
X12.1609Y-4.4791
X12.1625Y-4.4562
X11.1625Y-4.5562
X11.2141Y-4.4988
X11.4109Y-4.4791
X11.4125Y-4.4562
X8.725Y-6.0562
X8.7766Y-5.9988
X8.9734Y-5.9791
X8.975Y-5.9562
X9.5687Y-6.8062
X9.6203Y-6.7488
X9.8172Y-6.7291
X9.8187Y-6.7062
X6.1Y-5.3062
X6.1516Y-5.2488
X6.3484Y-5.2291
X6.35Y-5.2062
X7.5062Y-6.8062
X7.5578Y-6.7488
X7.7547Y-6.7291
X7.7562Y-6.7062
X11.725Y-6.0562
X11.7766Y-5.9988
X11.9734Y-5.9791
X11.975Y-5.9562
X4.6937Y-6.0562
X4.7453Y-5.9988
X4.9422Y-5.9791
X4.9437Y-5.9562
X13.225Y-6.0562
X13.2766Y-5.9988
X13.4734Y-5.9791
X13.475Y-5.9562
X10.975Y-6.8062
X11.0266Y-6.7488
X11.2234Y-6.7291
X11.225Y-6.7062
X7.225Y-6.0562
X7.2766Y-5.9988
X7.4734Y-5.9791
X7.475Y-5.9562
X6.475Y-6.0562
X6.5266Y-5.9988
X6.7234Y-5.9791
X6.725Y-5.9562
X10.4125Y-4.5562
X10.4641Y-4.4988
X10.6609Y-4.4791
X10.6625Y-4.4562
X4.5062Y-5.3062
X4.5578Y-5.2488
X4.7547Y-5.2291
X4.7562Y-5.2062
X10.225Y-6.0562
X10.2766Y-5.9988
X10.4734Y-5.9791
X10.475Y-5.9562
X7.6Y-5.3062
X7.6516Y-5.2488
X7.8484Y-5.2291
X7.85Y-5.2062
X6.6625Y-4.5562
X6.7141Y-4.4988
X6.9109Y-4.4791
X6.9125Y-4.4562
X11.35Y-5.3062
X11.4016Y-5.2488
X11.5984Y-5.2291
X11.6Y-5.2062
X6.1Y-6.8062
X6.1516Y-6.7488
X6.3484Y-6.7291
X6.35Y-6.7062
X9.1Y-5.3062
X9.1516Y-5.2488
X9.3484Y-5.2291
X9.35Y-5.2062
X11.725Y-6.8062
X11.7766Y-6.7488
X11.9734Y-6.7291
X11.975Y-6.7062
X12.475Y-6.0562
X12.5266Y-5.9988
X12.7234Y-5.9791
X12.725Y-5.9562
X4.5062Y-6.8062
X4.5578Y-6.7488
X4.7547Y-6.7291
X4.7562Y-6.7062
X8.35Y-5.3062
X8.4016Y-5.2488
X8.5984Y-5.2291
X8.6Y-5.2062
X12.1Y-5.3062
X12.1516Y-5.2488
X12.3484Y-5.2291
X12.35Y-5.2062
T5
G00X3.5295Y-6.6307
M15
G01X3.5295Y-6.6818
M16
G05
G00X3.9705Y-6.6307
M15
G01X3.9705Y-6.6818
M16
G05
T0
M30
