G04 #@! TF.GenerationSoftware,KiCad,Pcbnew,(5.1.2)-2*
G04 #@! TF.CreationDate,2020-02-09T21:54:55+10:00*
G04 #@! TF.ProjectId,AbacusPCB,41626163-7573-4504-9342-2e6b69636164,rev?*
G04 #@! TF.SameCoordinates,Original*
G04 #@! TF.FileFunction,Legend,Bot*
G04 #@! TF.FilePolarity,Positive*
%FSLAX46Y46*%
G04 Gerber Fmt 4.6, Leading zero omitted, Abs format (unit mm)*
G04 Created by KiCad (PCBNEW (5.1.2)-2) date 2020-02-09 21:54:55*
%MOMM*%
%LPD*%
G04 APERTURE LIST*
%ADD10C,0.110000*%
%ADD11C,0.120000*%
%ADD12C,0.150000*%
%ADD13C,0.010000*%
G04 APERTURE END LIST*
D10*
X176631845Y-179839880D02*
X176631845Y-178839880D01*
X176203273Y-179839880D02*
X176203273Y-179316071D01*
X176250892Y-179220833D01*
X176346130Y-179173214D01*
X176488988Y-179173214D01*
X176584226Y-179220833D01*
X176631845Y-179268452D01*
X175869940Y-179173214D02*
X175488988Y-179173214D01*
X175727083Y-178839880D02*
X175727083Y-179697023D01*
X175679464Y-179792261D01*
X175584226Y-179839880D01*
X175488988Y-179839880D01*
X175298511Y-179173214D02*
X174917559Y-179173214D01*
X175155654Y-178839880D02*
X175155654Y-179697023D01*
X175108035Y-179792261D01*
X175012797Y-179839880D01*
X174917559Y-179839880D01*
X174584226Y-179173214D02*
X174584226Y-180173214D01*
X174584226Y-179220833D02*
X174488988Y-179173214D01*
X174298511Y-179173214D01*
X174203273Y-179220833D01*
X174155654Y-179268452D01*
X174108035Y-179363690D01*
X174108035Y-179649404D01*
X174155654Y-179744642D01*
X174203273Y-179792261D01*
X174298511Y-179839880D01*
X174488988Y-179839880D01*
X174584226Y-179792261D01*
X173727083Y-179792261D02*
X173631845Y-179839880D01*
X173441369Y-179839880D01*
X173346130Y-179792261D01*
X173298511Y-179697023D01*
X173298511Y-179649404D01*
X173346130Y-179554166D01*
X173441369Y-179506547D01*
X173584226Y-179506547D01*
X173679464Y-179458928D01*
X173727083Y-179363690D01*
X173727083Y-179316071D01*
X173679464Y-179220833D01*
X173584226Y-179173214D01*
X173441369Y-179173214D01*
X173346130Y-179220833D01*
X172869940Y-179744642D02*
X172822321Y-179792261D01*
X172869940Y-179839880D01*
X172917559Y-179792261D01*
X172869940Y-179744642D01*
X172869940Y-179839880D01*
X172869940Y-179220833D02*
X172822321Y-179268452D01*
X172869940Y-179316071D01*
X172917559Y-179268452D01*
X172869940Y-179220833D01*
X172869940Y-179316071D01*
X171679464Y-178792261D02*
X172536607Y-180077976D01*
X170631845Y-178792261D02*
X171488988Y-180077976D01*
X169869940Y-179173214D02*
X169869940Y-179982738D01*
X169917559Y-180077976D01*
X169965178Y-180125595D01*
X170060416Y-180173214D01*
X170203273Y-180173214D01*
X170298511Y-180125595D01*
X169869940Y-179792261D02*
X169965178Y-179839880D01*
X170155654Y-179839880D01*
X170250892Y-179792261D01*
X170298511Y-179744642D01*
X170346130Y-179649404D01*
X170346130Y-179363690D01*
X170298511Y-179268452D01*
X170250892Y-179220833D01*
X170155654Y-179173214D01*
X169965178Y-179173214D01*
X169869940Y-179220833D01*
X169393750Y-179839880D02*
X169393750Y-179173214D01*
X169393750Y-178839880D02*
X169441369Y-178887500D01*
X169393750Y-178935119D01*
X169346130Y-178887500D01*
X169393750Y-178839880D01*
X169393750Y-178935119D01*
X169060416Y-179173214D02*
X168679464Y-179173214D01*
X168917559Y-178839880D02*
X168917559Y-179697023D01*
X168869940Y-179792261D01*
X168774702Y-179839880D01*
X168679464Y-179839880D01*
X168346130Y-179839880D02*
X168346130Y-178839880D01*
X167917559Y-179839880D02*
X167917559Y-179316071D01*
X167965178Y-179220833D01*
X168060416Y-179173214D01*
X168203273Y-179173214D01*
X168298511Y-179220833D01*
X168346130Y-179268452D01*
X167012797Y-179173214D02*
X167012797Y-179839880D01*
X167441369Y-179173214D02*
X167441369Y-179697023D01*
X167393750Y-179792261D01*
X167298511Y-179839880D01*
X167155654Y-179839880D01*
X167060416Y-179792261D01*
X167012797Y-179744642D01*
X166536607Y-179839880D02*
X166536607Y-178839880D01*
X166536607Y-179220833D02*
X166441369Y-179173214D01*
X166250892Y-179173214D01*
X166155654Y-179220833D01*
X166108035Y-179268452D01*
X166060416Y-179363690D01*
X166060416Y-179649404D01*
X166108035Y-179744642D01*
X166155654Y-179792261D01*
X166250892Y-179839880D01*
X166441369Y-179839880D01*
X166536607Y-179792261D01*
X165631845Y-179744642D02*
X165584226Y-179792261D01*
X165631845Y-179839880D01*
X165679464Y-179792261D01*
X165631845Y-179744642D01*
X165631845Y-179839880D01*
X164727083Y-179792261D02*
X164822321Y-179839880D01*
X165012797Y-179839880D01*
X165108035Y-179792261D01*
X165155654Y-179744642D01*
X165203273Y-179649404D01*
X165203273Y-179363690D01*
X165155654Y-179268452D01*
X165108035Y-179220833D01*
X165012797Y-179173214D01*
X164822321Y-179173214D01*
X164727083Y-179220833D01*
X164155654Y-179839880D02*
X164250892Y-179792261D01*
X164298511Y-179744642D01*
X164346130Y-179649404D01*
X164346130Y-179363690D01*
X164298511Y-179268452D01*
X164250892Y-179220833D01*
X164155654Y-179173214D01*
X164012797Y-179173214D01*
X163917559Y-179220833D01*
X163869940Y-179268452D01*
X163822321Y-179363690D01*
X163822321Y-179649404D01*
X163869940Y-179744642D01*
X163917559Y-179792261D01*
X164012797Y-179839880D01*
X164155654Y-179839880D01*
X163393750Y-179839880D02*
X163393750Y-179173214D01*
X163393750Y-179268452D02*
X163346130Y-179220833D01*
X163250892Y-179173214D01*
X163108035Y-179173214D01*
X163012797Y-179220833D01*
X162965178Y-179316071D01*
X162965178Y-179839880D01*
X162965178Y-179316071D02*
X162917559Y-179220833D01*
X162822321Y-179173214D01*
X162679464Y-179173214D01*
X162584226Y-179220833D01*
X162536607Y-179316071D01*
X162536607Y-179839880D01*
X161346130Y-178792261D02*
X162203273Y-180077976D01*
X161012797Y-179173214D02*
X161012797Y-179839880D01*
X161012797Y-179268452D02*
X160965178Y-179220833D01*
X160869940Y-179173214D01*
X160727083Y-179173214D01*
X160631845Y-179220833D01*
X160584226Y-179316071D01*
X160584226Y-179839880D01*
X160108035Y-179839880D02*
X160108035Y-179173214D01*
X160108035Y-178839880D02*
X160155654Y-178887500D01*
X160108035Y-178935119D01*
X160060416Y-178887500D01*
X160108035Y-178839880D01*
X160108035Y-178935119D01*
X159203273Y-179792261D02*
X159298511Y-179839880D01*
X159488988Y-179839880D01*
X159584226Y-179792261D01*
X159631845Y-179744642D01*
X159679464Y-179649404D01*
X159679464Y-179363690D01*
X159631845Y-179268452D01*
X159584226Y-179220833D01*
X159488988Y-179173214D01*
X159298511Y-179173214D01*
X159203273Y-179220833D01*
X158774702Y-179839880D02*
X158774702Y-178839880D01*
X158679464Y-179458928D02*
X158393750Y-179839880D01*
X158393750Y-179173214D02*
X158774702Y-179554166D01*
X157822321Y-179839880D02*
X157917559Y-179792261D01*
X157965178Y-179744642D01*
X158012797Y-179649404D01*
X158012797Y-179363690D01*
X157965178Y-179268452D01*
X157917559Y-179220833D01*
X157822321Y-179173214D01*
X157679464Y-179173214D01*
X157584226Y-179220833D01*
X157536607Y-179268452D01*
X157488988Y-179363690D01*
X157488988Y-179649404D01*
X157536607Y-179744642D01*
X157584226Y-179792261D01*
X157679464Y-179839880D01*
X157822321Y-179839880D01*
X156917559Y-179839880D02*
X157012797Y-179792261D01*
X157060416Y-179697023D01*
X157060416Y-178839880D01*
X156108035Y-179839880D02*
X156108035Y-179316071D01*
X156155654Y-179220833D01*
X156250892Y-179173214D01*
X156441369Y-179173214D01*
X156536607Y-179220833D01*
X156108035Y-179792261D02*
X156203273Y-179839880D01*
X156441369Y-179839880D01*
X156536607Y-179792261D01*
X156584226Y-179697023D01*
X156584226Y-179601785D01*
X156536607Y-179506547D01*
X156441369Y-179458928D01*
X156203273Y-179458928D01*
X156108035Y-179411309D01*
X155631845Y-179839880D02*
X155631845Y-179173214D01*
X155631845Y-178839880D02*
X155679464Y-178887500D01*
X155631845Y-178935119D01*
X155584226Y-178887500D01*
X155631845Y-178839880D01*
X155631845Y-178935119D01*
X155155654Y-179173214D02*
X155155654Y-180030357D01*
X155203273Y-180125595D01*
X155298511Y-180173214D01*
X155346130Y-180173214D01*
X155155654Y-178839880D02*
X155203273Y-178887500D01*
X155155654Y-178935119D01*
X155108035Y-178887500D01*
X155155654Y-178839880D01*
X155155654Y-178935119D01*
D11*
X106362500Y-108743750D02*
X106362500Y-184943750D01*
D12*
X337145142Y-179776380D02*
X337478476Y-179300190D01*
X337716571Y-179776380D02*
X337716571Y-178776380D01*
X337335619Y-178776380D01*
X337240380Y-178824000D01*
X337192761Y-178871619D01*
X337145142Y-178966857D01*
X337145142Y-179109714D01*
X337192761Y-179204952D01*
X337240380Y-179252571D01*
X337335619Y-179300190D01*
X337716571Y-179300190D01*
X336335619Y-179728761D02*
X336430857Y-179776380D01*
X336621333Y-179776380D01*
X336716571Y-179728761D01*
X336764190Y-179633523D01*
X336764190Y-179252571D01*
X336716571Y-179157333D01*
X336621333Y-179109714D01*
X336430857Y-179109714D01*
X336335619Y-179157333D01*
X336288000Y-179252571D01*
X336288000Y-179347809D01*
X336764190Y-179443047D01*
X335954666Y-179109714D02*
X335716571Y-179776380D01*
X335478476Y-179109714D01*
X334383238Y-178871619D02*
X334335619Y-178824000D01*
X334240380Y-178776380D01*
X334002285Y-178776380D01*
X333907047Y-178824000D01*
X333859428Y-178871619D01*
X333811809Y-178966857D01*
X333811809Y-179062095D01*
X333859428Y-179204952D01*
X334430857Y-179776380D01*
X333811809Y-179776380D01*
D11*
X98000000Y-126840000D02*
X97536000Y-127254000D01*
X98000000Y-119540000D02*
X98000000Y-126840000D01*
X92500000Y-119540000D02*
X92500000Y-126840000D01*
X112237500Y-130543750D02*
X111823500Y-130079750D01*
X119537500Y-130543750D02*
X112237500Y-130543750D01*
X119537500Y-125043750D02*
X112237500Y-125043750D01*
X150337500Y-130385000D02*
X149923500Y-129921000D01*
X157637500Y-130385000D02*
X150337500Y-130385000D01*
X157637500Y-124885000D02*
X150337500Y-124885000D01*
X188437500Y-130543750D02*
X188023500Y-130079750D01*
X195737500Y-130543750D02*
X188437500Y-130543750D01*
X195737500Y-125043750D02*
X188437500Y-125043750D01*
X226537500Y-130543750D02*
X226123500Y-130079750D01*
X233837500Y-130543750D02*
X226537500Y-130543750D01*
X233837500Y-125043750D02*
X226537500Y-125043750D01*
X264637500Y-130543750D02*
X264223500Y-130079750D01*
X271937500Y-130543750D02*
X264637500Y-130543750D01*
X271937500Y-125043750D02*
X264637500Y-125043750D01*
X302737500Y-130543750D02*
X302323500Y-130079750D01*
X310037500Y-130543750D02*
X302737500Y-130543750D01*
X310037500Y-125043750D02*
X302737500Y-125043750D01*
X328931250Y-130543750D02*
X328517250Y-130079750D01*
X336231250Y-130543750D02*
X328931250Y-130543750D01*
X336231250Y-125043750D02*
X328931250Y-125043750D01*
X331312500Y-149593750D02*
X330898500Y-149129750D01*
X338612500Y-149593750D02*
X331312500Y-149593750D01*
X338612500Y-144093750D02*
X331312500Y-144093750D01*
X343375000Y-163143750D02*
X343789000Y-163607750D01*
X336075000Y-163143750D02*
X343375000Y-163143750D01*
X336075000Y-168643750D02*
X343375000Y-168643750D01*
X305275000Y-163143750D02*
X305689000Y-163607750D01*
X297975000Y-163143750D02*
X305275000Y-163143750D01*
X297975000Y-168643750D02*
X305275000Y-168643750D01*
X250506250Y-163143750D02*
X250920250Y-163607750D01*
X243206250Y-163143750D02*
X250506250Y-163143750D01*
X243206250Y-168643750D02*
X250506250Y-168643750D01*
X198118750Y-163143750D02*
X198532750Y-163607750D01*
X190818750Y-163143750D02*
X198118750Y-163143750D01*
X190818750Y-168643750D02*
X198118750Y-168643750D01*
X162400000Y-163143750D02*
X162814000Y-163607750D01*
X155100000Y-163143750D02*
X162400000Y-163143750D01*
X155100000Y-168643750D02*
X162400000Y-168643750D01*
X121918750Y-163143750D02*
X122332750Y-163607750D01*
X114618750Y-163143750D02*
X121918750Y-163143750D01*
X114618750Y-168643750D02*
X121918750Y-168643750D01*
X98000000Y-172718750D02*
X97536000Y-173132750D01*
X98000000Y-165418750D02*
X98000000Y-172718750D01*
X92500000Y-165418750D02*
X92500000Y-172718750D01*
X98000000Y-157637500D02*
X97536000Y-158051500D01*
X98000000Y-150337500D02*
X98000000Y-157637500D01*
X92500000Y-150337500D02*
X92500000Y-157637500D01*
D13*
G36*
X115241917Y-177546000D02*
G01*
X340370583Y-177546000D01*
X340370583Y-166824680D01*
X334137979Y-166824680D01*
X334123566Y-166859770D01*
X334048283Y-166946538D01*
X333911542Y-167085554D01*
X333712752Y-167277386D01*
X333451326Y-167522605D01*
X333126673Y-167821780D01*
X332783312Y-168134582D01*
X332491979Y-168398414D01*
X332219861Y-168643985D01*
X331973362Y-168865580D01*
X331758883Y-169057484D01*
X331582825Y-169213981D01*
X331451590Y-169329357D01*
X331371580Y-169397896D01*
X331348862Y-169415166D01*
X331305868Y-169394754D01*
X331204473Y-169336615D01*
X331057694Y-169248501D01*
X330878545Y-169138160D01*
X330777362Y-169074852D01*
X329300737Y-168098173D01*
X327854032Y-167045348D01*
X326442490Y-165921221D01*
X325071353Y-164730637D01*
X323745864Y-163478441D01*
X322471264Y-162169476D01*
X321252796Y-160808588D01*
X320095702Y-159400620D01*
X319570232Y-158718250D01*
X319445726Y-158555426D01*
X319339145Y-158420463D01*
X319260806Y-158326104D01*
X319221024Y-158285095D01*
X319219016Y-158284333D01*
X319172938Y-158308057D01*
X319067888Y-158374785D01*
X318913457Y-158477848D01*
X318719240Y-158610579D01*
X318494828Y-158766310D01*
X318249815Y-158938373D01*
X317993792Y-159120099D01*
X317736354Y-159304822D01*
X317487091Y-159485874D01*
X317425917Y-159530707D01*
X316804330Y-159995264D01*
X316148810Y-160500087D01*
X315484894Y-161025179D01*
X314838115Y-161550539D01*
X314680017Y-161681299D01*
X314480247Y-161846013D01*
X314302391Y-161990463D01*
X314156733Y-162106475D01*
X314053558Y-162185875D01*
X314003151Y-162220489D01*
X314000504Y-162221333D01*
X313974068Y-162185724D01*
X313910572Y-162084000D01*
X313814506Y-161923818D01*
X313690359Y-161712833D01*
X313542620Y-161458702D01*
X313375780Y-161169081D01*
X313194328Y-160851625D01*
X313100603Y-160686750D01*
X312229813Y-159152166D01*
X312340782Y-159053477D01*
X312464906Y-158949584D01*
X312650259Y-158803330D01*
X312888573Y-158620720D01*
X313171581Y-158407756D01*
X313491017Y-158170441D01*
X313838615Y-157914778D01*
X314206108Y-157646770D01*
X314585229Y-157372420D01*
X314967711Y-157097731D01*
X315345288Y-156828706D01*
X315709694Y-156571348D01*
X316052661Y-156331659D01*
X316365924Y-156115644D01*
X316641215Y-155929304D01*
X316663917Y-155914147D01*
X316859662Y-155782599D01*
X317061439Y-155645290D01*
X317240042Y-155522167D01*
X317327065Y-155461183D01*
X317588047Y-155276375D01*
X317290343Y-154653104D01*
X316879593Y-153753250D01*
X316468692Y-152774251D01*
X316059555Y-151721602D01*
X315654101Y-150600800D01*
X315352568Y-149708346D01*
X297601448Y-149708346D01*
X297594358Y-149825025D01*
X297580810Y-150001241D01*
X297561983Y-150224661D01*
X297539057Y-150482950D01*
X297513212Y-150763772D01*
X297485627Y-151054795D01*
X297457481Y-151343683D01*
X297429954Y-151618103D01*
X297404226Y-151865718D01*
X297381476Y-152074197D01*
X297362884Y-152231203D01*
X297349629Y-152324403D01*
X297344481Y-152344880D01*
X297301782Y-152345090D01*
X297180451Y-152343064D01*
X296986486Y-152338961D01*
X296725889Y-152332942D01*
X296404659Y-152325167D01*
X296028796Y-152315796D01*
X295604300Y-152304990D01*
X295137172Y-152292909D01*
X294633410Y-152279713D01*
X294099016Y-152265563D01*
X293539989Y-152250619D01*
X292962329Y-152235041D01*
X292372035Y-152218989D01*
X291775109Y-152202625D01*
X291177550Y-152186107D01*
X290585358Y-152169597D01*
X290004533Y-152153255D01*
X289441074Y-152137241D01*
X288900983Y-152121715D01*
X288390258Y-152106838D01*
X287967151Y-152094329D01*
X287570218Y-152082500D01*
X287598854Y-152505833D01*
X287658276Y-153156342D01*
X287749735Y-153854477D01*
X287868265Y-154571710D01*
X288008904Y-155279511D01*
X288166688Y-155949354D01*
X288255167Y-156277811D01*
X288624634Y-157440888D01*
X289064690Y-158566167D01*
X289577017Y-159656408D01*
X290163296Y-160714373D01*
X290825211Y-161742824D01*
X291564444Y-162744521D01*
X292382676Y-163722227D01*
X293281591Y-164678704D01*
X293513693Y-164909500D01*
X294052135Y-165427488D01*
X294565956Y-165898271D01*
X295074675Y-166338128D01*
X295597811Y-166763340D01*
X296154882Y-167190186D01*
X296765408Y-167634947D01*
X296873083Y-167711501D01*
X297077566Y-167856814D01*
X297259243Y-167986645D01*
X297406359Y-168092533D01*
X297507157Y-168166019D01*
X297549212Y-168198029D01*
X297530556Y-168236620D01*
X297454840Y-168329803D01*
X297325958Y-168473409D01*
X297147802Y-168663268D01*
X296924267Y-168895209D01*
X296659246Y-169165062D01*
X296448839Y-169376578D01*
X296193578Y-169631617D01*
X295957483Y-169866826D01*
X295747134Y-170075702D01*
X295569110Y-170251740D01*
X295429992Y-170388438D01*
X295336360Y-170479291D01*
X295294794Y-170517794D01*
X295293376Y-170518666D01*
X295255991Y-170495435D01*
X295161289Y-170431106D01*
X295020896Y-170333730D01*
X294846436Y-170211354D01*
X294700415Y-170108140D01*
X293519560Y-169225825D01*
X292407040Y-168302240D01*
X291364665Y-167339243D01*
X290394242Y-166338692D01*
X289497579Y-165302448D01*
X288676483Y-164232368D01*
X287968079Y-163186135D01*
X287277778Y-162022127D01*
X286661841Y-160821683D01*
X286119826Y-159583478D01*
X285651289Y-158306187D01*
X285255791Y-156988484D01*
X284932887Y-155629044D01*
X284682138Y-154226541D01*
X284504876Y-152797793D01*
X284433797Y-152073753D01*
X283477940Y-152045456D01*
X283147535Y-152035300D01*
X282760431Y-152022792D01*
X282344536Y-152008873D01*
X281927753Y-151994481D01*
X281537987Y-151980556D01*
X281400250Y-151975489D01*
X280860495Y-151955516D01*
X280324151Y-151935814D01*
X279798192Y-151916630D01*
X279289590Y-151898209D01*
X278805321Y-151880800D01*
X278352358Y-151864649D01*
X277937674Y-151850002D01*
X277568244Y-151837106D01*
X277251041Y-151826209D01*
X276993040Y-151817556D01*
X276801213Y-151811395D01*
X276682535Y-151807972D01*
X276648104Y-151807333D01*
X276531917Y-151807333D01*
X276532834Y-154950583D01*
X276534804Y-155972773D01*
X276540313Y-156915404D01*
X276549696Y-157783522D01*
X276563285Y-158582174D01*
X276581414Y-159316406D01*
X276604416Y-159991265D01*
X276632624Y-160611797D01*
X276666370Y-161183049D01*
X276705989Y-161710068D01*
X276751813Y-162197899D01*
X276804176Y-162651590D01*
X276863410Y-163076187D01*
X276929849Y-163476737D01*
X277003827Y-163858286D01*
X277085675Y-164225881D01*
X277166530Y-164549666D01*
X277311290Y-165015762D01*
X277484525Y-165407133D01*
X277692535Y-165730766D01*
X277941619Y-165993648D01*
X278238077Y-166202765D01*
X278588210Y-166365103D01*
X278889293Y-166460220D01*
X279173471Y-166516083D01*
X279533314Y-166553691D01*
X279961833Y-166573134D01*
X280452036Y-166574504D01*
X280996933Y-166557890D01*
X281589535Y-166523381D01*
X282222851Y-166471069D01*
X282815245Y-166409592D01*
X283051524Y-166383799D01*
X283256866Y-166363263D01*
X283417231Y-166349236D01*
X283518581Y-166342969D01*
X283547663Y-166344301D01*
X283546260Y-166388398D01*
X283535552Y-166507525D01*
X283516525Y-166692674D01*
X283490168Y-166934835D01*
X283457467Y-167225000D01*
X283419410Y-167554161D01*
X283376984Y-167913308D01*
X283361748Y-168040577D01*
X283159912Y-169720931D01*
X280999498Y-169702503D01*
X280406685Y-169696339D01*
X279890136Y-169688632D01*
X279451311Y-169679422D01*
X279091668Y-169668751D01*
X278812669Y-169656661D01*
X278615771Y-169643193D01*
X278522860Y-169632213D01*
X277817094Y-169484029D01*
X277175792Y-169281363D01*
X276598287Y-169023829D01*
X276083914Y-168711044D01*
X275632006Y-168342623D01*
X275511491Y-168211500D01*
X223867688Y-168211500D01*
X222716620Y-169363637D01*
X221565551Y-170515774D01*
X221436817Y-170434762D01*
X221353731Y-170379755D01*
X221219475Y-170287837D01*
X221051800Y-170171277D01*
X220868458Y-170042340D01*
X220846675Y-170026922D01*
X220077690Y-169458042D01*
X219300609Y-168837272D01*
X218538323Y-168184154D01*
X217813724Y-167518233D01*
X217214607Y-166926040D01*
X216341261Y-165985155D01*
X215545235Y-165034509D01*
X214819180Y-164063856D01*
X214155750Y-163062950D01*
X213547598Y-162021544D01*
X213143205Y-161247666D01*
X212675372Y-160257191D01*
X212262096Y-159267747D01*
X211900441Y-158268538D01*
X211587469Y-157248767D01*
X211320246Y-156197636D01*
X211095835Y-155104350D01*
X210911299Y-153958111D01*
X210763704Y-152748122D01*
X210724524Y-152353435D01*
X210698205Y-152074038D01*
X209737811Y-152045598D01*
X209405870Y-152035394D01*
X209017340Y-152022841D01*
X208600232Y-152008882D01*
X208182559Y-151994461D01*
X207792334Y-151980520D01*
X207655583Y-151975489D01*
X207100659Y-151954955D01*
X206552287Y-151934814D01*
X206017252Y-151915305D01*
X205502340Y-151896667D01*
X205014337Y-151879141D01*
X204560028Y-151862967D01*
X204146198Y-151848384D01*
X203779633Y-151835631D01*
X203467117Y-151824950D01*
X203215438Y-151816579D01*
X203031378Y-151810758D01*
X202921725Y-151807727D01*
X202896821Y-151807333D01*
X202774018Y-151807333D01*
X202801241Y-155691416D01*
X202807329Y-156497860D01*
X202813882Y-157226115D01*
X202821164Y-157882662D01*
X202829436Y-158473976D01*
X202838960Y-159006538D01*
X202849998Y-159486826D01*
X202862813Y-159921317D01*
X202877665Y-160316491D01*
X202894818Y-160678825D01*
X202914532Y-161014799D01*
X202937071Y-161330890D01*
X202962695Y-161633577D01*
X202991668Y-161929338D01*
X203024250Y-162224652D01*
X203060705Y-162525997D01*
X203085437Y-162719247D01*
X203172441Y-163313330D01*
X203272069Y-163861174D01*
X203382520Y-164355958D01*
X203501992Y-164790859D01*
X203628684Y-165159056D01*
X203760794Y-165453726D01*
X203845669Y-165598058D01*
X204098949Y-165901551D01*
X204417234Y-166150816D01*
X204800488Y-166345829D01*
X205150759Y-166461940D01*
X205426633Y-166516179D01*
X205777679Y-166553021D01*
X206196232Y-166572569D01*
X206674625Y-166574924D01*
X207205192Y-166560186D01*
X207780266Y-166528458D01*
X208392182Y-166479840D01*
X209033272Y-166414433D01*
X209070578Y-166410196D01*
X209307136Y-166384383D01*
X209513059Y-166364193D01*
X209674227Y-166350826D01*
X209776518Y-166345482D01*
X209806370Y-166347675D01*
X209805771Y-166392559D01*
X209795844Y-166512341D01*
X209777566Y-166697878D01*
X209751910Y-166940031D01*
X209719851Y-167229658D01*
X209682365Y-167557618D01*
X209640427Y-167914772D01*
X209629199Y-168008902D01*
X209585777Y-168372661D01*
X209545705Y-168710056D01*
X209510063Y-169011849D01*
X209479933Y-169268803D01*
X209456398Y-169471683D01*
X209440539Y-169611251D01*
X209433438Y-169678271D01*
X209433158Y-169682583D01*
X209392565Y-169690760D01*
X209277017Y-169697657D01*
X209096217Y-169703299D01*
X208859867Y-169707711D01*
X208577669Y-169710918D01*
X208259324Y-169712947D01*
X207914535Y-169713821D01*
X207553003Y-169713567D01*
X207184432Y-169712211D01*
X206818523Y-169709776D01*
X206464978Y-169706289D01*
X206133499Y-169701776D01*
X205833788Y-169696260D01*
X205575548Y-169689769D01*
X205368480Y-169682326D01*
X205222286Y-169673958D01*
X205194152Y-169671508D01*
X204489064Y-169571033D01*
X203831274Y-169412848D01*
X203226581Y-169198818D01*
X202680787Y-168930809D01*
X202642770Y-168907470D01*
X189206258Y-168907470D01*
X188493171Y-169371940D01*
X188218464Y-169551007D01*
X187914832Y-169749158D01*
X187609394Y-169948681D01*
X187329266Y-170131862D01*
X187166250Y-170238595D01*
X186962925Y-170370263D01*
X186782571Y-170484134D01*
X186637663Y-170572562D01*
X186540680Y-170627902D01*
X186505851Y-170643223D01*
X186464559Y-170614833D01*
X186372993Y-170533714D01*
X186239696Y-170408036D01*
X186073214Y-170245971D01*
X185882089Y-170055690D01*
X185722685Y-169894250D01*
X185375208Y-169535674D01*
X185074273Y-169215115D01*
X184803470Y-168913975D01*
X184546387Y-168613652D01*
X184286615Y-168295549D01*
X184069915Y-168021000D01*
X183807017Y-167661166D01*
X174196647Y-167661166D01*
X173114365Y-168475029D01*
X172850936Y-168672903D01*
X172609978Y-168853473D01*
X172399602Y-169010693D01*
X172227921Y-169138519D01*
X172103044Y-169230907D01*
X172033082Y-169281810D01*
X172020896Y-169289945D01*
X171981135Y-169272484D01*
X171879488Y-169223782D01*
X171729749Y-169150552D01*
X171545716Y-169059511D01*
X171470562Y-169022091D01*
X171249567Y-168915166D01*
X170975629Y-168787680D01*
X170674155Y-168651168D01*
X170370548Y-168517166D01*
X170148250Y-168421661D01*
X168768520Y-167792227D01*
X167415582Y-167084042D01*
X166094088Y-166300073D01*
X164808688Y-165443290D01*
X163564034Y-164516661D01*
X162364778Y-163523155D01*
X162083750Y-163274664D01*
X161784511Y-162999268D01*
X161445168Y-162674290D01*
X161080255Y-162314591D01*
X160704309Y-161935030D01*
X160331863Y-161550468D01*
X159977453Y-161175765D01*
X159655615Y-160825781D01*
X159380882Y-160515376D01*
X159352471Y-160482312D01*
X159184076Y-160282992D01*
X158994946Y-160054720D01*
X158793766Y-159808417D01*
X158589223Y-159555004D01*
X158390002Y-159305403D01*
X158204790Y-159070533D01*
X158042272Y-158861317D01*
X157911133Y-158688674D01*
X157820060Y-158563527D01*
X157787706Y-158514874D01*
X157777544Y-158487494D01*
X157780253Y-158450363D01*
X157800242Y-158396704D01*
X157841917Y-158319745D01*
X157909687Y-158212712D01*
X158007960Y-158068830D01*
X158141142Y-157881326D01*
X158313642Y-157643426D01*
X158529867Y-157348356D01*
X158675550Y-157150386D01*
X159616528Y-155872857D01*
X160040644Y-156433012D01*
X160494882Y-157024682D01*
X160921177Y-157561152D01*
X161334841Y-158060003D01*
X161751186Y-158538819D01*
X162185522Y-159015182D01*
X162653162Y-159506675D01*
X163169418Y-160030881D01*
X163203139Y-160064624D01*
X164078653Y-160909253D01*
X164940934Y-161677786D01*
X165797889Y-162376109D01*
X166657425Y-163010110D01*
X167527448Y-163585677D01*
X168415866Y-164108698D01*
X169162129Y-164501737D01*
X169309672Y-164573327D01*
X169497828Y-164661323D01*
X169712745Y-164759611D01*
X169940568Y-164862075D01*
X170167447Y-164962600D01*
X170379528Y-165055070D01*
X170562959Y-165133370D01*
X170703886Y-165191385D01*
X170788457Y-165222998D01*
X170804995Y-165227000D01*
X170806909Y-165185292D01*
X170808776Y-165062669D01*
X170810586Y-164862885D01*
X170812332Y-164589690D01*
X170814005Y-164246839D01*
X170815599Y-163838081D01*
X170817105Y-163367171D01*
X170818515Y-162837860D01*
X170819820Y-162253901D01*
X170821013Y-161619045D01*
X170822087Y-160937046D01*
X170823032Y-160211655D01*
X170823841Y-159446624D01*
X170824506Y-158645706D01*
X170825019Y-157812654D01*
X170825372Y-156951218D01*
X170825556Y-156065153D01*
X170825583Y-155568806D01*
X170825583Y-145910613D01*
X170636808Y-145708797D01*
X170483406Y-145515099D01*
X170410293Y-145345698D01*
X170417629Y-145197548D01*
X170505572Y-145067605D01*
X170674282Y-144952824D01*
X170676343Y-144951760D01*
X170886604Y-144843500D01*
X172401260Y-144831391D01*
X173915917Y-144819282D01*
X173917896Y-155901557D01*
X173919875Y-166983833D01*
X174058261Y-167322500D01*
X174196647Y-167661166D01*
X183807017Y-167661166D01*
X183279051Y-166938531D01*
X182558530Y-165809190D01*
X181908321Y-164632896D01*
X181328390Y-163409569D01*
X180818703Y-162139127D01*
X180379228Y-160821490D01*
X180009932Y-159456576D01*
X179710782Y-158044305D01*
X179528948Y-156929666D01*
X179472841Y-156522735D01*
X179423397Y-156130433D01*
X179380229Y-155744668D01*
X179342949Y-155357351D01*
X179311167Y-154960392D01*
X179284496Y-154545702D01*
X179262547Y-154105190D01*
X179244933Y-153630766D01*
X179231264Y-153114340D01*
X179221154Y-152547823D01*
X179214213Y-151923124D01*
X179210053Y-151232154D01*
X179208287Y-150466823D01*
X179208169Y-150245390D01*
X179207583Y-147392280D01*
X179018808Y-147190463D01*
X178915166Y-147067521D01*
X178835943Y-146951263D01*
X178802475Y-146878848D01*
X178808364Y-146738678D01*
X178895981Y-146606748D01*
X179062512Y-146486674D01*
X179136734Y-146449134D01*
X179196204Y-146422151D01*
X179252962Y-146400403D01*
X179316471Y-146383321D01*
X179396191Y-146370338D01*
X179501585Y-146360888D01*
X179642113Y-146354404D01*
X179827236Y-146350318D01*
X180066418Y-146348062D01*
X180369118Y-146347071D01*
X180744798Y-146346776D01*
X180844766Y-146346746D01*
X182333783Y-146346333D01*
X182351920Y-150293916D01*
X182355328Y-150991308D01*
X182358837Y-151609803D01*
X182362558Y-152155172D01*
X182366601Y-152633185D01*
X182371075Y-153049613D01*
X182376093Y-153410225D01*
X182381763Y-153720793D01*
X182388196Y-153987086D01*
X182395503Y-154214875D01*
X182403793Y-154409930D01*
X182413178Y-154578021D01*
X182423767Y-154724918D01*
X182435670Y-154856393D01*
X182439936Y-154897666D01*
X182548874Y-155812934D01*
X182675015Y-156662713D01*
X182822159Y-157465112D01*
X182994109Y-158238241D01*
X183194664Y-159000209D01*
X183427627Y-159769127D01*
X183523908Y-160062333D01*
X183987234Y-161315354D01*
X184524640Y-162528187D01*
X185136522Y-163701475D01*
X185823277Y-164835859D01*
X186585299Y-165931984D01*
X187422985Y-166990492D01*
X188336730Y-168012027D01*
X188556671Y-168240769D01*
X189206258Y-168907470D01*
X202642770Y-168907470D01*
X202448583Y-168788260D01*
X202246938Y-168638559D01*
X202018789Y-168442161D01*
X201786918Y-168221055D01*
X201574103Y-167997232D01*
X201403124Y-167792678D01*
X201368666Y-167745833D01*
X201102409Y-167314575D01*
X200858150Y-166802538D01*
X200636175Y-166210779D01*
X200436771Y-165540356D01*
X200260224Y-164792325D01*
X200106821Y-163967742D01*
X199976847Y-163067665D01*
X199889024Y-162284833D01*
X199866346Y-162053767D01*
X199845861Y-161837482D01*
X199827443Y-161630649D01*
X199810966Y-161427940D01*
X199796303Y-161224027D01*
X199783328Y-161013580D01*
X199771914Y-160791272D01*
X199761935Y-160551774D01*
X199753264Y-160289758D01*
X199745776Y-159999896D01*
X199739343Y-159676859D01*
X199733839Y-159315318D01*
X199729139Y-158909946D01*
X199725114Y-158455414D01*
X199721640Y-157946393D01*
X199718589Y-157377555D01*
X199715835Y-156743573D01*
X199713253Y-156039117D01*
X199710714Y-155258858D01*
X199708992Y-154696583D01*
X199691710Y-148971000D01*
X199937730Y-148971134D01*
X200011500Y-148972753D01*
X200164301Y-148977437D01*
X200390561Y-148984986D01*
X200684705Y-148995194D01*
X201041163Y-149007859D01*
X201454361Y-149022778D01*
X201918727Y-149039748D01*
X202428687Y-149058565D01*
X202978670Y-149079027D01*
X203563103Y-149100930D01*
X204176413Y-149124071D01*
X204813027Y-149148248D01*
X205157917Y-149161410D01*
X205804080Y-149186040D01*
X206429533Y-149209746D01*
X207028739Y-149232323D01*
X207596158Y-149253570D01*
X208126252Y-149273284D01*
X208613484Y-149291261D01*
X209052313Y-149307298D01*
X209437203Y-149321194D01*
X209762615Y-149332744D01*
X210023010Y-149341746D01*
X210212851Y-149347997D01*
X210326598Y-149351294D01*
X210354333Y-149351775D01*
X210576583Y-149352000D01*
X210576583Y-142721402D01*
X210390891Y-142582268D01*
X210189656Y-142407632D01*
X210070953Y-142247383D01*
X210034923Y-142102022D01*
X210081707Y-141972048D01*
X210190604Y-141871393D01*
X210268154Y-141821733D01*
X210344737Y-141781030D01*
X210429527Y-141748297D01*
X210531700Y-141722546D01*
X210660427Y-141702789D01*
X210824884Y-141688042D01*
X211034244Y-141677315D01*
X211297682Y-141669623D01*
X211624370Y-141663977D01*
X212023484Y-141659392D01*
X212174667Y-141657924D01*
X213709250Y-141643391D01*
X213709250Y-149344399D01*
X214058500Y-149368507D01*
X214155358Y-149373362D01*
X214329679Y-149380090D01*
X214574284Y-149388479D01*
X214881997Y-149398316D01*
X215245640Y-149409388D01*
X215658034Y-149421481D01*
X216112001Y-149434384D01*
X216600364Y-149447882D01*
X217115944Y-149461764D01*
X217651565Y-149475816D01*
X217836750Y-149480589D01*
X218678019Y-149502216D01*
X219438600Y-149521874D01*
X220122447Y-149539685D01*
X220733511Y-149555771D01*
X221275747Y-149570255D01*
X221753107Y-149583257D01*
X222169545Y-149594901D01*
X222529012Y-149605308D01*
X222835463Y-149614600D01*
X223092850Y-149622900D01*
X223305126Y-149630329D01*
X223476245Y-149637010D01*
X223610159Y-149643064D01*
X223710821Y-149648613D01*
X223782184Y-149653781D01*
X223828202Y-149658688D01*
X223852828Y-149663456D01*
X223859232Y-149666537D01*
X223860749Y-149712351D01*
X223854523Y-149829975D01*
X223841728Y-150007024D01*
X223823539Y-150231113D01*
X223801131Y-150489856D01*
X223775679Y-150770867D01*
X223748357Y-151061761D01*
X223720341Y-151350153D01*
X223692805Y-151623657D01*
X223666924Y-151869888D01*
X223643873Y-152076460D01*
X223624826Y-152230988D01*
X223610959Y-152321087D01*
X223605741Y-152338953D01*
X223562019Y-152340021D01*
X223438976Y-152338729D01*
X223241919Y-152335210D01*
X222976156Y-152329598D01*
X222646997Y-152322024D01*
X222259749Y-152312621D01*
X221819720Y-152301522D01*
X221332220Y-152288860D01*
X220802555Y-152274767D01*
X220236035Y-152259375D01*
X219637967Y-152242818D01*
X219013660Y-152225228D01*
X218722931Y-152216935D01*
X218088503Y-152198865D01*
X217477934Y-152181659D01*
X216896530Y-152165458D01*
X216349595Y-152150402D01*
X215842435Y-152136630D01*
X215380356Y-152124283D01*
X214968663Y-152113499D01*
X214612662Y-152104419D01*
X214317657Y-152097183D01*
X214088955Y-152091930D01*
X213931861Y-152088801D01*
X213851680Y-152087934D01*
X213842095Y-152088326D01*
X213839954Y-152131986D01*
X213844638Y-152244427D01*
X213855243Y-152410120D01*
X213870867Y-152613532D01*
X213876725Y-152683432D01*
X214026438Y-153957860D01*
X214255075Y-155201663D01*
X214562606Y-156414778D01*
X214948996Y-157597140D01*
X215414213Y-158748686D01*
X215958223Y-159869352D01*
X216580994Y-160959074D01*
X217282493Y-162017789D01*
X218062686Y-163045433D01*
X218921541Y-164041942D01*
X219859024Y-165007251D01*
X220620449Y-165716739D01*
X221019807Y-166065165D01*
X221450675Y-166425979D01*
X221898190Y-166787612D01*
X222347489Y-167138495D01*
X222783710Y-167467060D01*
X223191988Y-167761735D01*
X223557460Y-168010953D01*
X223620986Y-168052309D01*
X223867688Y-168211500D01*
X275511491Y-168211500D01*
X275241898Y-167918180D01*
X275018699Y-167608312D01*
X274781665Y-167200970D01*
X274566001Y-166736997D01*
X274370046Y-166211264D01*
X274192137Y-165618641D01*
X274030609Y-164954000D01*
X273883800Y-164212211D01*
X273844751Y-163987899D01*
X273787129Y-163632775D01*
X273734452Y-163274868D01*
X273686520Y-162909343D01*
X273643131Y-162531364D01*
X273620869Y-162306000D01*
X261461250Y-162306000D01*
X261461250Y-165311666D01*
X232970917Y-165311666D01*
X232970917Y-162306000D01*
X261461250Y-162306000D01*
X273620869Y-162306000D01*
X273604085Y-162136097D01*
X273569179Y-161718706D01*
X273538213Y-161274354D01*
X273510986Y-160798208D01*
X273487296Y-160285432D01*
X273466942Y-159731190D01*
X273449724Y-159130647D01*
X273435440Y-158478967D01*
X273423888Y-157771315D01*
X273414868Y-157002856D01*
X273408179Y-156168754D01*
X273403619Y-155264174D01*
X273400987Y-154284281D01*
X273400093Y-153299583D01*
X273399250Y-148971000D01*
X273650424Y-148971000D01*
X273726864Y-148972591D01*
X273881938Y-148977221D01*
X274109673Y-148984676D01*
X274404098Y-148994741D01*
X274759244Y-149007202D01*
X275169138Y-149021843D01*
X275627810Y-149038452D01*
X276129289Y-149056812D01*
X276667602Y-149076710D01*
X277236780Y-149097931D01*
X277830852Y-149120260D01*
X278317674Y-149138688D01*
X278941072Y-149162350D01*
X279553774Y-149185587D01*
X280148829Y-149208136D01*
X280719284Y-149229735D01*
X281258189Y-149250122D01*
X281758592Y-149269033D01*
X282213541Y-149286205D01*
X282616083Y-149301378D01*
X282959268Y-149314286D01*
X283236144Y-149324669D01*
X283439758Y-149332264D01*
X283527500Y-149335506D01*
X284321250Y-149364636D01*
X284321250Y-147277666D01*
X257989917Y-147277666D01*
X257989917Y-150283333D01*
X237796917Y-150283333D01*
X237796917Y-147277666D01*
X257989917Y-147277666D01*
X284321250Y-147277666D01*
X284321250Y-142720019D01*
X284132816Y-142584696D01*
X283932550Y-142410799D01*
X283795235Y-142226284D01*
X283757748Y-142144176D01*
X283767922Y-142057282D01*
X283841633Y-141954453D01*
X283963710Y-141850953D01*
X284118979Y-141762043D01*
X284151917Y-141747670D01*
X284209001Y-141726747D01*
X284275212Y-141709665D01*
X284359692Y-141695935D01*
X284471581Y-141685070D01*
X284620024Y-141676583D01*
X284814160Y-141669985D01*
X285063133Y-141664790D01*
X285376084Y-141660509D01*
X285762154Y-141656656D01*
X285877000Y-141655652D01*
X287411583Y-141642502D01*
X287411583Y-149344098D01*
X287803167Y-149368850D01*
X287931018Y-149375282D01*
X288132116Y-149383285D01*
X288395061Y-149392498D01*
X288708454Y-149402561D01*
X289060897Y-149413113D01*
X289440992Y-149423793D01*
X289837340Y-149434241D01*
X289993917Y-149438176D01*
X290803171Y-149458429D01*
X291586986Y-149478444D01*
X292341253Y-149498101D01*
X293061863Y-149517278D01*
X293744709Y-149535852D01*
X294385680Y-149553702D01*
X294980670Y-149570707D01*
X295525567Y-149586744D01*
X296016265Y-149601692D01*
X296448655Y-149615429D01*
X296818627Y-149627834D01*
X297122073Y-149638784D01*
X297354885Y-149648159D01*
X297512953Y-149655836D01*
X297592169Y-149661693D01*
X297600900Y-149663538D01*
X297601448Y-149708346D01*
X315352568Y-149708346D01*
X315254245Y-149417341D01*
X314861903Y-148176719D01*
X314478992Y-146884432D01*
X314107428Y-145545976D01*
X314083065Y-145455078D01*
X313861692Y-144627324D01*
X313679949Y-144530910D01*
X313478863Y-144404540D01*
X313351944Y-144280348D01*
X313301350Y-144162805D01*
X313329234Y-144056382D01*
X313414027Y-143979385D01*
X313471310Y-143954704D01*
X313596390Y-143907990D01*
X313779509Y-143842519D01*
X314010907Y-143761565D01*
X314280828Y-143668403D01*
X314579513Y-143566307D01*
X314897205Y-143458553D01*
X315224146Y-143348416D01*
X315550577Y-143239169D01*
X315866742Y-143134089D01*
X316162881Y-143036449D01*
X316429237Y-142949525D01*
X316656053Y-142876591D01*
X316833569Y-142820923D01*
X316952029Y-142785794D01*
X317001675Y-142774481D01*
X317002583Y-142775047D01*
X317011859Y-142835431D01*
X317038023Y-142967172D01*
X317078585Y-143159204D01*
X317131051Y-143400466D01*
X317192931Y-143679895D01*
X317261730Y-143986427D01*
X317334959Y-144308999D01*
X317410123Y-144636549D01*
X317484732Y-144958012D01*
X317556293Y-145262328D01*
X317622314Y-145538431D01*
X317659266Y-145690166D01*
X318024285Y-147105832D01*
X318404677Y-148444252D01*
X318799917Y-149703726D01*
X319209477Y-150882556D01*
X319521275Y-151701500D01*
X319608761Y-151917982D01*
X319709107Y-152159265D01*
X319816689Y-152412576D01*
X319925882Y-152665140D01*
X320031064Y-152904185D01*
X320126611Y-153116936D01*
X320206898Y-153290620D01*
X320266303Y-153412463D01*
X320299200Y-153469692D01*
X320300250Y-153470834D01*
X320347638Y-153463912D01*
X320452784Y-153420705D01*
X320600645Y-153348154D01*
X320776177Y-153253201D01*
X320795451Y-153242300D01*
X321233805Y-152995478D01*
X321693554Y-152740593D01*
X322168871Y-152480616D01*
X322653929Y-152218518D01*
X323142901Y-151957268D01*
X323629960Y-151699839D01*
X324109279Y-151449200D01*
X324575030Y-151208323D01*
X325021387Y-150980178D01*
X325442522Y-150767736D01*
X325832608Y-150573968D01*
X326185818Y-150401844D01*
X326496325Y-150254335D01*
X326758303Y-150134412D01*
X326965923Y-150045045D01*
X327113358Y-149989206D01*
X327194782Y-149969865D01*
X327207781Y-149973223D01*
X327235428Y-150017155D01*
X327297598Y-150125084D01*
X327388939Y-150287233D01*
X327504099Y-150493826D01*
X327637727Y-150735087D01*
X327784470Y-151001239D01*
X327938978Y-151282507D01*
X328095899Y-151569113D01*
X328249881Y-151851281D01*
X328395572Y-152119236D01*
X328527621Y-152363200D01*
X328640677Y-152573398D01*
X328729387Y-152740053D01*
X328788400Y-152853389D01*
X328812365Y-152903629D01*
X328812631Y-152904958D01*
X328775837Y-152930445D01*
X328676749Y-152981143D01*
X328531087Y-153049367D01*
X328378714Y-153117000D01*
X328152905Y-153218741D01*
X327865410Y-153354187D01*
X327529064Y-153516856D01*
X327156703Y-153700266D01*
X326761162Y-153897935D01*
X326355276Y-154103379D01*
X325951880Y-154310118D01*
X325563810Y-154511668D01*
X325203901Y-154701547D01*
X324884987Y-154873273D01*
X324707250Y-154971256D01*
X324523226Y-155074725D01*
X324299341Y-155201878D01*
X324045712Y-155346850D01*
X323772455Y-155503778D01*
X323489685Y-155666795D01*
X323207520Y-155830037D01*
X322936075Y-155987639D01*
X322685466Y-156133737D01*
X322465809Y-156262464D01*
X322287221Y-156367956D01*
X322159817Y-156444349D01*
X322093714Y-156485777D01*
X322088644Y-156489425D01*
X322104542Y-156527846D01*
X322162619Y-156623468D01*
X322255128Y-156765114D01*
X322374321Y-156941603D01*
X322512451Y-157141759D01*
X322661770Y-157354403D01*
X322814532Y-157568356D01*
X322962989Y-157772440D01*
X323099394Y-157955476D01*
X323156582Y-158030333D01*
X324002696Y-159063872D01*
X324928951Y-160075360D01*
X325935615Y-161065018D01*
X327022954Y-162033065D01*
X328191235Y-162979721D01*
X329440725Y-163905205D01*
X330771690Y-164809737D01*
X332184397Y-165693537D01*
X333131583Y-166248409D01*
X333391108Y-166396714D01*
X333627887Y-166532118D01*
X333831506Y-166648658D01*
X333991553Y-166740371D01*
X334097616Y-166801297D01*
X334137979Y-166824680D01*
X340370583Y-166824680D01*
X340370583Y-134789333D01*
X115241917Y-134789333D01*
X115241917Y-177546000D01*
X115241917Y-177546000D01*
G37*
X115241917Y-177546000D02*
X340370583Y-177546000D01*
X340370583Y-166824680D01*
X334137979Y-166824680D01*
X334123566Y-166859770D01*
X334048283Y-166946538D01*
X333911542Y-167085554D01*
X333712752Y-167277386D01*
X333451326Y-167522605D01*
X333126673Y-167821780D01*
X332783312Y-168134582D01*
X332491979Y-168398414D01*
X332219861Y-168643985D01*
X331973362Y-168865580D01*
X331758883Y-169057484D01*
X331582825Y-169213981D01*
X331451590Y-169329357D01*
X331371580Y-169397896D01*
X331348862Y-169415166D01*
X331305868Y-169394754D01*
X331204473Y-169336615D01*
X331057694Y-169248501D01*
X330878545Y-169138160D01*
X330777362Y-169074852D01*
X329300737Y-168098173D01*
X327854032Y-167045348D01*
X326442490Y-165921221D01*
X325071353Y-164730637D01*
X323745864Y-163478441D01*
X322471264Y-162169476D01*
X321252796Y-160808588D01*
X320095702Y-159400620D01*
X319570232Y-158718250D01*
X319445726Y-158555426D01*
X319339145Y-158420463D01*
X319260806Y-158326104D01*
X319221024Y-158285095D01*
X319219016Y-158284333D01*
X319172938Y-158308057D01*
X319067888Y-158374785D01*
X318913457Y-158477848D01*
X318719240Y-158610579D01*
X318494828Y-158766310D01*
X318249815Y-158938373D01*
X317993792Y-159120099D01*
X317736354Y-159304822D01*
X317487091Y-159485874D01*
X317425917Y-159530707D01*
X316804330Y-159995264D01*
X316148810Y-160500087D01*
X315484894Y-161025179D01*
X314838115Y-161550539D01*
X314680017Y-161681299D01*
X314480247Y-161846013D01*
X314302391Y-161990463D01*
X314156733Y-162106475D01*
X314053558Y-162185875D01*
X314003151Y-162220489D01*
X314000504Y-162221333D01*
X313974068Y-162185724D01*
X313910572Y-162084000D01*
X313814506Y-161923818D01*
X313690359Y-161712833D01*
X313542620Y-161458702D01*
X313375780Y-161169081D01*
X313194328Y-160851625D01*
X313100603Y-160686750D01*
X312229813Y-159152166D01*
X312340782Y-159053477D01*
X312464906Y-158949584D01*
X312650259Y-158803330D01*
X312888573Y-158620720D01*
X313171581Y-158407756D01*
X313491017Y-158170441D01*
X313838615Y-157914778D01*
X314206108Y-157646770D01*
X314585229Y-157372420D01*
X314967711Y-157097731D01*
X315345288Y-156828706D01*
X315709694Y-156571348D01*
X316052661Y-156331659D01*
X316365924Y-156115644D01*
X316641215Y-155929304D01*
X316663917Y-155914147D01*
X316859662Y-155782599D01*
X317061439Y-155645290D01*
X317240042Y-155522167D01*
X317327065Y-155461183D01*
X317588047Y-155276375D01*
X317290343Y-154653104D01*
X316879593Y-153753250D01*
X316468692Y-152774251D01*
X316059555Y-151721602D01*
X315654101Y-150600800D01*
X315352568Y-149708346D01*
X297601448Y-149708346D01*
X297594358Y-149825025D01*
X297580810Y-150001241D01*
X297561983Y-150224661D01*
X297539057Y-150482950D01*
X297513212Y-150763772D01*
X297485627Y-151054795D01*
X297457481Y-151343683D01*
X297429954Y-151618103D01*
X297404226Y-151865718D01*
X297381476Y-152074197D01*
X297362884Y-152231203D01*
X297349629Y-152324403D01*
X297344481Y-152344880D01*
X297301782Y-152345090D01*
X297180451Y-152343064D01*
X296986486Y-152338961D01*
X296725889Y-152332942D01*
X296404659Y-152325167D01*
X296028796Y-152315796D01*
X295604300Y-152304990D01*
X295137172Y-152292909D01*
X294633410Y-152279713D01*
X294099016Y-152265563D01*
X293539989Y-152250619D01*
X292962329Y-152235041D01*
X292372035Y-152218989D01*
X291775109Y-152202625D01*
X291177550Y-152186107D01*
X290585358Y-152169597D01*
X290004533Y-152153255D01*
X289441074Y-152137241D01*
X288900983Y-152121715D01*
X288390258Y-152106838D01*
X287967151Y-152094329D01*
X287570218Y-152082500D01*
X287598854Y-152505833D01*
X287658276Y-153156342D01*
X287749735Y-153854477D01*
X287868265Y-154571710D01*
X288008904Y-155279511D01*
X288166688Y-155949354D01*
X288255167Y-156277811D01*
X288624634Y-157440888D01*
X289064690Y-158566167D01*
X289577017Y-159656408D01*
X290163296Y-160714373D01*
X290825211Y-161742824D01*
X291564444Y-162744521D01*
X292382676Y-163722227D01*
X293281591Y-164678704D01*
X293513693Y-164909500D01*
X294052135Y-165427488D01*
X294565956Y-165898271D01*
X295074675Y-166338128D01*
X295597811Y-166763340D01*
X296154882Y-167190186D01*
X296765408Y-167634947D01*
X296873083Y-167711501D01*
X297077566Y-167856814D01*
X297259243Y-167986645D01*
X297406359Y-168092533D01*
X297507157Y-168166019D01*
X297549212Y-168198029D01*
X297530556Y-168236620D01*
X297454840Y-168329803D01*
X297325958Y-168473409D01*
X297147802Y-168663268D01*
X296924267Y-168895209D01*
X296659246Y-169165062D01*
X296448839Y-169376578D01*
X296193578Y-169631617D01*
X295957483Y-169866826D01*
X295747134Y-170075702D01*
X295569110Y-170251740D01*
X295429992Y-170388438D01*
X295336360Y-170479291D01*
X295294794Y-170517794D01*
X295293376Y-170518666D01*
X295255991Y-170495435D01*
X295161289Y-170431106D01*
X295020896Y-170333730D01*
X294846436Y-170211354D01*
X294700415Y-170108140D01*
X293519560Y-169225825D01*
X292407040Y-168302240D01*
X291364665Y-167339243D01*
X290394242Y-166338692D01*
X289497579Y-165302448D01*
X288676483Y-164232368D01*
X287968079Y-163186135D01*
X287277778Y-162022127D01*
X286661841Y-160821683D01*
X286119826Y-159583478D01*
X285651289Y-158306187D01*
X285255791Y-156988484D01*
X284932887Y-155629044D01*
X284682138Y-154226541D01*
X284504876Y-152797793D01*
X284433797Y-152073753D01*
X283477940Y-152045456D01*
X283147535Y-152035300D01*
X282760431Y-152022792D01*
X282344536Y-152008873D01*
X281927753Y-151994481D01*
X281537987Y-151980556D01*
X281400250Y-151975489D01*
X280860495Y-151955516D01*
X280324151Y-151935814D01*
X279798192Y-151916630D01*
X279289590Y-151898209D01*
X278805321Y-151880800D01*
X278352358Y-151864649D01*
X277937674Y-151850002D01*
X277568244Y-151837106D01*
X277251041Y-151826209D01*
X276993040Y-151817556D01*
X276801213Y-151811395D01*
X276682535Y-151807972D01*
X276648104Y-151807333D01*
X276531917Y-151807333D01*
X276532834Y-154950583D01*
X276534804Y-155972773D01*
X276540313Y-156915404D01*
X276549696Y-157783522D01*
X276563285Y-158582174D01*
X276581414Y-159316406D01*
X276604416Y-159991265D01*
X276632624Y-160611797D01*
X276666370Y-161183049D01*
X276705989Y-161710068D01*
X276751813Y-162197899D01*
X276804176Y-162651590D01*
X276863410Y-163076187D01*
X276929849Y-163476737D01*
X277003827Y-163858286D01*
X277085675Y-164225881D01*
X277166530Y-164549666D01*
X277311290Y-165015762D01*
X277484525Y-165407133D01*
X277692535Y-165730766D01*
X277941619Y-165993648D01*
X278238077Y-166202765D01*
X278588210Y-166365103D01*
X278889293Y-166460220D01*
X279173471Y-166516083D01*
X279533314Y-166553691D01*
X279961833Y-166573134D01*
X280452036Y-166574504D01*
X280996933Y-166557890D01*
X281589535Y-166523381D01*
X282222851Y-166471069D01*
X282815245Y-166409592D01*
X283051524Y-166383799D01*
X283256866Y-166363263D01*
X283417231Y-166349236D01*
X283518581Y-166342969D01*
X283547663Y-166344301D01*
X283546260Y-166388398D01*
X283535552Y-166507525D01*
X283516525Y-166692674D01*
X283490168Y-166934835D01*
X283457467Y-167225000D01*
X283419410Y-167554161D01*
X283376984Y-167913308D01*
X283361748Y-168040577D01*
X283159912Y-169720931D01*
X280999498Y-169702503D01*
X280406685Y-169696339D01*
X279890136Y-169688632D01*
X279451311Y-169679422D01*
X279091668Y-169668751D01*
X278812669Y-169656661D01*
X278615771Y-169643193D01*
X278522860Y-169632213D01*
X277817094Y-169484029D01*
X277175792Y-169281363D01*
X276598287Y-169023829D01*
X276083914Y-168711044D01*
X275632006Y-168342623D01*
X275511491Y-168211500D01*
X223867688Y-168211500D01*
X222716620Y-169363637D01*
X221565551Y-170515774D01*
X221436817Y-170434762D01*
X221353731Y-170379755D01*
X221219475Y-170287837D01*
X221051800Y-170171277D01*
X220868458Y-170042340D01*
X220846675Y-170026922D01*
X220077690Y-169458042D01*
X219300609Y-168837272D01*
X218538323Y-168184154D01*
X217813724Y-167518233D01*
X217214607Y-166926040D01*
X216341261Y-165985155D01*
X215545235Y-165034509D01*
X214819180Y-164063856D01*
X214155750Y-163062950D01*
X213547598Y-162021544D01*
X213143205Y-161247666D01*
X212675372Y-160257191D01*
X212262096Y-159267747D01*
X211900441Y-158268538D01*
X211587469Y-157248767D01*
X211320246Y-156197636D01*
X211095835Y-155104350D01*
X210911299Y-153958111D01*
X210763704Y-152748122D01*
X210724524Y-152353435D01*
X210698205Y-152074038D01*
X209737811Y-152045598D01*
X209405870Y-152035394D01*
X209017340Y-152022841D01*
X208600232Y-152008882D01*
X208182559Y-151994461D01*
X207792334Y-151980520D01*
X207655583Y-151975489D01*
X207100659Y-151954955D01*
X206552287Y-151934814D01*
X206017252Y-151915305D01*
X205502340Y-151896667D01*
X205014337Y-151879141D01*
X204560028Y-151862967D01*
X204146198Y-151848384D01*
X203779633Y-151835631D01*
X203467117Y-151824950D01*
X203215438Y-151816579D01*
X203031378Y-151810758D01*
X202921725Y-151807727D01*
X202896821Y-151807333D01*
X202774018Y-151807333D01*
X202801241Y-155691416D01*
X202807329Y-156497860D01*
X202813882Y-157226115D01*
X202821164Y-157882662D01*
X202829436Y-158473976D01*
X202838960Y-159006538D01*
X202849998Y-159486826D01*
X202862813Y-159921317D01*
X202877665Y-160316491D01*
X202894818Y-160678825D01*
X202914532Y-161014799D01*
X202937071Y-161330890D01*
X202962695Y-161633577D01*
X202991668Y-161929338D01*
X203024250Y-162224652D01*
X203060705Y-162525997D01*
X203085437Y-162719247D01*
X203172441Y-163313330D01*
X203272069Y-163861174D01*
X203382520Y-164355958D01*
X203501992Y-164790859D01*
X203628684Y-165159056D01*
X203760794Y-165453726D01*
X203845669Y-165598058D01*
X204098949Y-165901551D01*
X204417234Y-166150816D01*
X204800488Y-166345829D01*
X205150759Y-166461940D01*
X205426633Y-166516179D01*
X205777679Y-166553021D01*
X206196232Y-166572569D01*
X206674625Y-166574924D01*
X207205192Y-166560186D01*
X207780266Y-166528458D01*
X208392182Y-166479840D01*
X209033272Y-166414433D01*
X209070578Y-166410196D01*
X209307136Y-166384383D01*
X209513059Y-166364193D01*
X209674227Y-166350826D01*
X209776518Y-166345482D01*
X209806370Y-166347675D01*
X209805771Y-166392559D01*
X209795844Y-166512341D01*
X209777566Y-166697878D01*
X209751910Y-166940031D01*
X209719851Y-167229658D01*
X209682365Y-167557618D01*
X209640427Y-167914772D01*
X209629199Y-168008902D01*
X209585777Y-168372661D01*
X209545705Y-168710056D01*
X209510063Y-169011849D01*
X209479933Y-169268803D01*
X209456398Y-169471683D01*
X209440539Y-169611251D01*
X209433438Y-169678271D01*
X209433158Y-169682583D01*
X209392565Y-169690760D01*
X209277017Y-169697657D01*
X209096217Y-169703299D01*
X208859867Y-169707711D01*
X208577669Y-169710918D01*
X208259324Y-169712947D01*
X207914535Y-169713821D01*
X207553003Y-169713567D01*
X207184432Y-169712211D01*
X206818523Y-169709776D01*
X206464978Y-169706289D01*
X206133499Y-169701776D01*
X205833788Y-169696260D01*
X205575548Y-169689769D01*
X205368480Y-169682326D01*
X205222286Y-169673958D01*
X205194152Y-169671508D01*
X204489064Y-169571033D01*
X203831274Y-169412848D01*
X203226581Y-169198818D01*
X202680787Y-168930809D01*
X202642770Y-168907470D01*
X189206258Y-168907470D01*
X188493171Y-169371940D01*
X188218464Y-169551007D01*
X187914832Y-169749158D01*
X187609394Y-169948681D01*
X187329266Y-170131862D01*
X187166250Y-170238595D01*
X186962925Y-170370263D01*
X186782571Y-170484134D01*
X186637663Y-170572562D01*
X186540680Y-170627902D01*
X186505851Y-170643223D01*
X186464559Y-170614833D01*
X186372993Y-170533714D01*
X186239696Y-170408036D01*
X186073214Y-170245971D01*
X185882089Y-170055690D01*
X185722685Y-169894250D01*
X185375208Y-169535674D01*
X185074273Y-169215115D01*
X184803470Y-168913975D01*
X184546387Y-168613652D01*
X184286615Y-168295549D01*
X184069915Y-168021000D01*
X183807017Y-167661166D01*
X174196647Y-167661166D01*
X173114365Y-168475029D01*
X172850936Y-168672903D01*
X172609978Y-168853473D01*
X172399602Y-169010693D01*
X172227921Y-169138519D01*
X172103044Y-169230907D01*
X172033082Y-169281810D01*
X172020896Y-169289945D01*
X171981135Y-169272484D01*
X171879488Y-169223782D01*
X171729749Y-169150552D01*
X171545716Y-169059511D01*
X171470562Y-169022091D01*
X171249567Y-168915166D01*
X170975629Y-168787680D01*
X170674155Y-168651168D01*
X170370548Y-168517166D01*
X170148250Y-168421661D01*
X168768520Y-167792227D01*
X167415582Y-167084042D01*
X166094088Y-166300073D01*
X164808688Y-165443290D01*
X163564034Y-164516661D01*
X162364778Y-163523155D01*
X162083750Y-163274664D01*
X161784511Y-162999268D01*
X161445168Y-162674290D01*
X161080255Y-162314591D01*
X160704309Y-161935030D01*
X160331863Y-161550468D01*
X159977453Y-161175765D01*
X159655615Y-160825781D01*
X159380882Y-160515376D01*
X159352471Y-160482312D01*
X159184076Y-160282992D01*
X158994946Y-160054720D01*
X158793766Y-159808417D01*
X158589223Y-159555004D01*
X158390002Y-159305403D01*
X158204790Y-159070533D01*
X158042272Y-158861317D01*
X157911133Y-158688674D01*
X157820060Y-158563527D01*
X157787706Y-158514874D01*
X157777544Y-158487494D01*
X157780253Y-158450363D01*
X157800242Y-158396704D01*
X157841917Y-158319745D01*
X157909687Y-158212712D01*
X158007960Y-158068830D01*
X158141142Y-157881326D01*
X158313642Y-157643426D01*
X158529867Y-157348356D01*
X158675550Y-157150386D01*
X159616528Y-155872857D01*
X160040644Y-156433012D01*
X160494882Y-157024682D01*
X160921177Y-157561152D01*
X161334841Y-158060003D01*
X161751186Y-158538819D01*
X162185522Y-159015182D01*
X162653162Y-159506675D01*
X163169418Y-160030881D01*
X163203139Y-160064624D01*
X164078653Y-160909253D01*
X164940934Y-161677786D01*
X165797889Y-162376109D01*
X166657425Y-163010110D01*
X167527448Y-163585677D01*
X168415866Y-164108698D01*
X169162129Y-164501737D01*
X169309672Y-164573327D01*
X169497828Y-164661323D01*
X169712745Y-164759611D01*
X169940568Y-164862075D01*
X170167447Y-164962600D01*
X170379528Y-165055070D01*
X170562959Y-165133370D01*
X170703886Y-165191385D01*
X170788457Y-165222998D01*
X170804995Y-165227000D01*
X170806909Y-165185292D01*
X170808776Y-165062669D01*
X170810586Y-164862885D01*
X170812332Y-164589690D01*
X170814005Y-164246839D01*
X170815599Y-163838081D01*
X170817105Y-163367171D01*
X170818515Y-162837860D01*
X170819820Y-162253901D01*
X170821013Y-161619045D01*
X170822087Y-160937046D01*
X170823032Y-160211655D01*
X170823841Y-159446624D01*
X170824506Y-158645706D01*
X170825019Y-157812654D01*
X170825372Y-156951218D01*
X170825556Y-156065153D01*
X170825583Y-155568806D01*
X170825583Y-145910613D01*
X170636808Y-145708797D01*
X170483406Y-145515099D01*
X170410293Y-145345698D01*
X170417629Y-145197548D01*
X170505572Y-145067605D01*
X170674282Y-144952824D01*
X170676343Y-144951760D01*
X170886604Y-144843500D01*
X172401260Y-144831391D01*
X173915917Y-144819282D01*
X173917896Y-155901557D01*
X173919875Y-166983833D01*
X174058261Y-167322500D01*
X174196647Y-167661166D01*
X183807017Y-167661166D01*
X183279051Y-166938531D01*
X182558530Y-165809190D01*
X181908321Y-164632896D01*
X181328390Y-163409569D01*
X180818703Y-162139127D01*
X180379228Y-160821490D01*
X180009932Y-159456576D01*
X179710782Y-158044305D01*
X179528948Y-156929666D01*
X179472841Y-156522735D01*
X179423397Y-156130433D01*
X179380229Y-155744668D01*
X179342949Y-155357351D01*
X179311167Y-154960392D01*
X179284496Y-154545702D01*
X179262547Y-154105190D01*
X179244933Y-153630766D01*
X179231264Y-153114340D01*
X179221154Y-152547823D01*
X179214213Y-151923124D01*
X179210053Y-151232154D01*
X179208287Y-150466823D01*
X179208169Y-150245390D01*
X179207583Y-147392280D01*
X179018808Y-147190463D01*
X178915166Y-147067521D01*
X178835943Y-146951263D01*
X178802475Y-146878848D01*
X178808364Y-146738678D01*
X178895981Y-146606748D01*
X179062512Y-146486674D01*
X179136734Y-146449134D01*
X179196204Y-146422151D01*
X179252962Y-146400403D01*
X179316471Y-146383321D01*
X179396191Y-146370338D01*
X179501585Y-146360888D01*
X179642113Y-146354404D01*
X179827236Y-146350318D01*
X180066418Y-146348062D01*
X180369118Y-146347071D01*
X180744798Y-146346776D01*
X180844766Y-146346746D01*
X182333783Y-146346333D01*
X182351920Y-150293916D01*
X182355328Y-150991308D01*
X182358837Y-151609803D01*
X182362558Y-152155172D01*
X182366601Y-152633185D01*
X182371075Y-153049613D01*
X182376093Y-153410225D01*
X182381763Y-153720793D01*
X182388196Y-153987086D01*
X182395503Y-154214875D01*
X182403793Y-154409930D01*
X182413178Y-154578021D01*
X182423767Y-154724918D01*
X182435670Y-154856393D01*
X182439936Y-154897666D01*
X182548874Y-155812934D01*
X182675015Y-156662713D01*
X182822159Y-157465112D01*
X182994109Y-158238241D01*
X183194664Y-159000209D01*
X183427627Y-159769127D01*
X183523908Y-160062333D01*
X183987234Y-161315354D01*
X184524640Y-162528187D01*
X185136522Y-163701475D01*
X185823277Y-164835859D01*
X186585299Y-165931984D01*
X187422985Y-166990492D01*
X188336730Y-168012027D01*
X188556671Y-168240769D01*
X189206258Y-168907470D01*
X202642770Y-168907470D01*
X202448583Y-168788260D01*
X202246938Y-168638559D01*
X202018789Y-168442161D01*
X201786918Y-168221055D01*
X201574103Y-167997232D01*
X201403124Y-167792678D01*
X201368666Y-167745833D01*
X201102409Y-167314575D01*
X200858150Y-166802538D01*
X200636175Y-166210779D01*
X200436771Y-165540356D01*
X200260224Y-164792325D01*
X200106821Y-163967742D01*
X199976847Y-163067665D01*
X199889024Y-162284833D01*
X199866346Y-162053767D01*
X199845861Y-161837482D01*
X199827443Y-161630649D01*
X199810966Y-161427940D01*
X199796303Y-161224027D01*
X199783328Y-161013580D01*
X199771914Y-160791272D01*
X199761935Y-160551774D01*
X199753264Y-160289758D01*
X199745776Y-159999896D01*
X199739343Y-159676859D01*
X199733839Y-159315318D01*
X199729139Y-158909946D01*
X199725114Y-158455414D01*
X199721640Y-157946393D01*
X199718589Y-157377555D01*
X199715835Y-156743573D01*
X199713253Y-156039117D01*
X199710714Y-155258858D01*
X199708992Y-154696583D01*
X199691710Y-148971000D01*
X199937730Y-148971134D01*
X200011500Y-148972753D01*
X200164301Y-148977437D01*
X200390561Y-148984986D01*
X200684705Y-148995194D01*
X201041163Y-149007859D01*
X201454361Y-149022778D01*
X201918727Y-149039748D01*
X202428687Y-149058565D01*
X202978670Y-149079027D01*
X203563103Y-149100930D01*
X204176413Y-149124071D01*
X204813027Y-149148248D01*
X205157917Y-149161410D01*
X205804080Y-149186040D01*
X206429533Y-149209746D01*
X207028739Y-149232323D01*
X207596158Y-149253570D01*
X208126252Y-149273284D01*
X208613484Y-149291261D01*
X209052313Y-149307298D01*
X209437203Y-149321194D01*
X209762615Y-149332744D01*
X210023010Y-149341746D01*
X210212851Y-149347997D01*
X210326598Y-149351294D01*
X210354333Y-149351775D01*
X210576583Y-149352000D01*
X210576583Y-142721402D01*
X210390891Y-142582268D01*
X210189656Y-142407632D01*
X210070953Y-142247383D01*
X210034923Y-142102022D01*
X210081707Y-141972048D01*
X210190604Y-141871393D01*
X210268154Y-141821733D01*
X210344737Y-141781030D01*
X210429527Y-141748297D01*
X210531700Y-141722546D01*
X210660427Y-141702789D01*
X210824884Y-141688042D01*
X211034244Y-141677315D01*
X211297682Y-141669623D01*
X211624370Y-141663977D01*
X212023484Y-141659392D01*
X212174667Y-141657924D01*
X213709250Y-141643391D01*
X213709250Y-149344399D01*
X214058500Y-149368507D01*
X214155358Y-149373362D01*
X214329679Y-149380090D01*
X214574284Y-149388479D01*
X214881997Y-149398316D01*
X215245640Y-149409388D01*
X215658034Y-149421481D01*
X216112001Y-149434384D01*
X216600364Y-149447882D01*
X217115944Y-149461764D01*
X217651565Y-149475816D01*
X217836750Y-149480589D01*
X218678019Y-149502216D01*
X219438600Y-149521874D01*
X220122447Y-149539685D01*
X220733511Y-149555771D01*
X221275747Y-149570255D01*
X221753107Y-149583257D01*
X222169545Y-149594901D01*
X222529012Y-149605308D01*
X222835463Y-149614600D01*
X223092850Y-149622900D01*
X223305126Y-149630329D01*
X223476245Y-149637010D01*
X223610159Y-149643064D01*
X223710821Y-149648613D01*
X223782184Y-149653781D01*
X223828202Y-149658688D01*
X223852828Y-149663456D01*
X223859232Y-149666537D01*
X223860749Y-149712351D01*
X223854523Y-149829975D01*
X223841728Y-150007024D01*
X223823539Y-150231113D01*
X223801131Y-150489856D01*
X223775679Y-150770867D01*
X223748357Y-151061761D01*
X223720341Y-151350153D01*
X223692805Y-151623657D01*
X223666924Y-151869888D01*
X223643873Y-152076460D01*
X223624826Y-152230988D01*
X223610959Y-152321087D01*
X223605741Y-152338953D01*
X223562019Y-152340021D01*
X223438976Y-152338729D01*
X223241919Y-152335210D01*
X222976156Y-152329598D01*
X222646997Y-152322024D01*
X222259749Y-152312621D01*
X221819720Y-152301522D01*
X221332220Y-152288860D01*
X220802555Y-152274767D01*
X220236035Y-152259375D01*
X219637967Y-152242818D01*
X219013660Y-152225228D01*
X218722931Y-152216935D01*
X218088503Y-152198865D01*
X217477934Y-152181659D01*
X216896530Y-152165458D01*
X216349595Y-152150402D01*
X215842435Y-152136630D01*
X215380356Y-152124283D01*
X214968663Y-152113499D01*
X214612662Y-152104419D01*
X214317657Y-152097183D01*
X214088955Y-152091930D01*
X213931861Y-152088801D01*
X213851680Y-152087934D01*
X213842095Y-152088326D01*
X213839954Y-152131986D01*
X213844638Y-152244427D01*
X213855243Y-152410120D01*
X213870867Y-152613532D01*
X213876725Y-152683432D01*
X214026438Y-153957860D01*
X214255075Y-155201663D01*
X214562606Y-156414778D01*
X214948996Y-157597140D01*
X215414213Y-158748686D01*
X215958223Y-159869352D01*
X216580994Y-160959074D01*
X217282493Y-162017789D01*
X218062686Y-163045433D01*
X218921541Y-164041942D01*
X219859024Y-165007251D01*
X220620449Y-165716739D01*
X221019807Y-166065165D01*
X221450675Y-166425979D01*
X221898190Y-166787612D01*
X222347489Y-167138495D01*
X222783710Y-167467060D01*
X223191988Y-167761735D01*
X223557460Y-168010953D01*
X223620986Y-168052309D01*
X223867688Y-168211500D01*
X275511491Y-168211500D01*
X275241898Y-167918180D01*
X275018699Y-167608312D01*
X274781665Y-167200970D01*
X274566001Y-166736997D01*
X274370046Y-166211264D01*
X274192137Y-165618641D01*
X274030609Y-164954000D01*
X273883800Y-164212211D01*
X273844751Y-163987899D01*
X273787129Y-163632775D01*
X273734452Y-163274868D01*
X273686520Y-162909343D01*
X273643131Y-162531364D01*
X273620869Y-162306000D01*
X261461250Y-162306000D01*
X261461250Y-165311666D01*
X232970917Y-165311666D01*
X232970917Y-162306000D01*
X261461250Y-162306000D01*
X273620869Y-162306000D01*
X273604085Y-162136097D01*
X273569179Y-161718706D01*
X273538213Y-161274354D01*
X273510986Y-160798208D01*
X273487296Y-160285432D01*
X273466942Y-159731190D01*
X273449724Y-159130647D01*
X273435440Y-158478967D01*
X273423888Y-157771315D01*
X273414868Y-157002856D01*
X273408179Y-156168754D01*
X273403619Y-155264174D01*
X273400987Y-154284281D01*
X273400093Y-153299583D01*
X273399250Y-148971000D01*
X273650424Y-148971000D01*
X273726864Y-148972591D01*
X273881938Y-148977221D01*
X274109673Y-148984676D01*
X274404098Y-148994741D01*
X274759244Y-149007202D01*
X275169138Y-149021843D01*
X275627810Y-149038452D01*
X276129289Y-149056812D01*
X276667602Y-149076710D01*
X277236780Y-149097931D01*
X277830852Y-149120260D01*
X278317674Y-149138688D01*
X278941072Y-149162350D01*
X279553774Y-149185587D01*
X280148829Y-149208136D01*
X280719284Y-149229735D01*
X281258189Y-149250122D01*
X281758592Y-149269033D01*
X282213541Y-149286205D01*
X282616083Y-149301378D01*
X282959268Y-149314286D01*
X283236144Y-149324669D01*
X283439758Y-149332264D01*
X283527500Y-149335506D01*
X284321250Y-149364636D01*
X284321250Y-147277666D01*
X257989917Y-147277666D01*
X257989917Y-150283333D01*
X237796917Y-150283333D01*
X237796917Y-147277666D01*
X257989917Y-147277666D01*
X284321250Y-147277666D01*
X284321250Y-142720019D01*
X284132816Y-142584696D01*
X283932550Y-142410799D01*
X283795235Y-142226284D01*
X283757748Y-142144176D01*
X283767922Y-142057282D01*
X283841633Y-141954453D01*
X283963710Y-141850953D01*
X284118979Y-141762043D01*
X284151917Y-141747670D01*
X284209001Y-141726747D01*
X284275212Y-141709665D01*
X284359692Y-141695935D01*
X284471581Y-141685070D01*
X284620024Y-141676583D01*
X284814160Y-141669985D01*
X285063133Y-141664790D01*
X285376084Y-141660509D01*
X285762154Y-141656656D01*
X285877000Y-141655652D01*
X287411583Y-141642502D01*
X287411583Y-149344098D01*
X287803167Y-149368850D01*
X287931018Y-149375282D01*
X288132116Y-149383285D01*
X288395061Y-149392498D01*
X288708454Y-149402561D01*
X289060897Y-149413113D01*
X289440992Y-149423793D01*
X289837340Y-149434241D01*
X289993917Y-149438176D01*
X290803171Y-149458429D01*
X291586986Y-149478444D01*
X292341253Y-149498101D01*
X293061863Y-149517278D01*
X293744709Y-149535852D01*
X294385680Y-149553702D01*
X294980670Y-149570707D01*
X295525567Y-149586744D01*
X296016265Y-149601692D01*
X296448655Y-149615429D01*
X296818627Y-149627834D01*
X297122073Y-149638784D01*
X297354885Y-149648159D01*
X297512953Y-149655836D01*
X297592169Y-149661693D01*
X297600900Y-149663538D01*
X297601448Y-149708346D01*
X315352568Y-149708346D01*
X315254245Y-149417341D01*
X314861903Y-148176719D01*
X314478992Y-146884432D01*
X314107428Y-145545976D01*
X314083065Y-145455078D01*
X313861692Y-144627324D01*
X313679949Y-144530910D01*
X313478863Y-144404540D01*
X313351944Y-144280348D01*
X313301350Y-144162805D01*
X313329234Y-144056382D01*
X313414027Y-143979385D01*
X313471310Y-143954704D01*
X313596390Y-143907990D01*
X313779509Y-143842519D01*
X314010907Y-143761565D01*
X314280828Y-143668403D01*
X314579513Y-143566307D01*
X314897205Y-143458553D01*
X315224146Y-143348416D01*
X315550577Y-143239169D01*
X315866742Y-143134089D01*
X316162881Y-143036449D01*
X316429237Y-142949525D01*
X316656053Y-142876591D01*
X316833569Y-142820923D01*
X316952029Y-142785794D01*
X317001675Y-142774481D01*
X317002583Y-142775047D01*
X317011859Y-142835431D01*
X317038023Y-142967172D01*
X317078585Y-143159204D01*
X317131051Y-143400466D01*
X317192931Y-143679895D01*
X317261730Y-143986427D01*
X317334959Y-144308999D01*
X317410123Y-144636549D01*
X317484732Y-144958012D01*
X317556293Y-145262328D01*
X317622314Y-145538431D01*
X317659266Y-145690166D01*
X318024285Y-147105832D01*
X318404677Y-148444252D01*
X318799917Y-149703726D01*
X319209477Y-150882556D01*
X319521275Y-151701500D01*
X319608761Y-151917982D01*
X319709107Y-152159265D01*
X319816689Y-152412576D01*
X319925882Y-152665140D01*
X320031064Y-152904185D01*
X320126611Y-153116936D01*
X320206898Y-153290620D01*
X320266303Y-153412463D01*
X320299200Y-153469692D01*
X320300250Y-153470834D01*
X320347638Y-153463912D01*
X320452784Y-153420705D01*
X320600645Y-153348154D01*
X320776177Y-153253201D01*
X320795451Y-153242300D01*
X321233805Y-152995478D01*
X321693554Y-152740593D01*
X322168871Y-152480616D01*
X322653929Y-152218518D01*
X323142901Y-151957268D01*
X323629960Y-151699839D01*
X324109279Y-151449200D01*
X324575030Y-151208323D01*
X325021387Y-150980178D01*
X325442522Y-150767736D01*
X325832608Y-150573968D01*
X326185818Y-150401844D01*
X326496325Y-150254335D01*
X326758303Y-150134412D01*
X326965923Y-150045045D01*
X327113358Y-149989206D01*
X327194782Y-149969865D01*
X327207781Y-149973223D01*
X327235428Y-150017155D01*
X327297598Y-150125084D01*
X327388939Y-150287233D01*
X327504099Y-150493826D01*
X327637727Y-150735087D01*
X327784470Y-151001239D01*
X327938978Y-151282507D01*
X328095899Y-151569113D01*
X328249881Y-151851281D01*
X328395572Y-152119236D01*
X328527621Y-152363200D01*
X328640677Y-152573398D01*
X328729387Y-152740053D01*
X328788400Y-152853389D01*
X328812365Y-152903629D01*
X328812631Y-152904958D01*
X328775837Y-152930445D01*
X328676749Y-152981143D01*
X328531087Y-153049367D01*
X328378714Y-153117000D01*
X328152905Y-153218741D01*
X327865410Y-153354187D01*
X327529064Y-153516856D01*
X327156703Y-153700266D01*
X326761162Y-153897935D01*
X326355276Y-154103379D01*
X325951880Y-154310118D01*
X325563810Y-154511668D01*
X325203901Y-154701547D01*
X324884987Y-154873273D01*
X324707250Y-154971256D01*
X324523226Y-155074725D01*
X324299341Y-155201878D01*
X324045712Y-155346850D01*
X323772455Y-155503778D01*
X323489685Y-155666795D01*
X323207520Y-155830037D01*
X322936075Y-155987639D01*
X322685466Y-156133737D01*
X322465809Y-156262464D01*
X322287221Y-156367956D01*
X322159817Y-156444349D01*
X322093714Y-156485777D01*
X322088644Y-156489425D01*
X322104542Y-156527846D01*
X322162619Y-156623468D01*
X322255128Y-156765114D01*
X322374321Y-156941603D01*
X322512451Y-157141759D01*
X322661770Y-157354403D01*
X322814532Y-157568356D01*
X322962989Y-157772440D01*
X323099394Y-157955476D01*
X323156582Y-158030333D01*
X324002696Y-159063872D01*
X324928951Y-160075360D01*
X325935615Y-161065018D01*
X327022954Y-162033065D01*
X328191235Y-162979721D01*
X329440725Y-163905205D01*
X330771690Y-164809737D01*
X332184397Y-165693537D01*
X333131583Y-166248409D01*
X333391108Y-166396714D01*
X333627887Y-166532118D01*
X333831506Y-166648658D01*
X333991553Y-166740371D01*
X334097616Y-166801297D01*
X334137979Y-166824680D01*
X340370583Y-166824680D01*
X340370583Y-134789333D01*
X115241917Y-134789333D01*
X115241917Y-177546000D01*
G36*
X276354842Y-114628715D02*
G01*
X275541903Y-114721331D01*
X274731360Y-114890734D01*
X274145104Y-115063648D01*
X273781338Y-115196829D01*
X273386716Y-115362265D01*
X272987839Y-115547461D01*
X272611309Y-115739919D01*
X272283728Y-115927144D01*
X272213917Y-115970825D01*
X271993919Y-116117550D01*
X271768634Y-116278556D01*
X271548276Y-116445346D01*
X271343062Y-116609423D01*
X271163206Y-116762289D01*
X271018924Y-116895448D01*
X270920432Y-117000402D01*
X270877945Y-117068654D01*
X270878066Y-117081972D01*
X270908860Y-117127384D01*
X270985978Y-117229892D01*
X271102563Y-117380708D01*
X271251759Y-117571047D01*
X271426711Y-117792121D01*
X271620563Y-118035143D01*
X271666671Y-118092682D01*
X272435092Y-119050794D01*
X272716088Y-118775624D01*
X273222904Y-118332114D01*
X273774713Y-117946306D01*
X274361748Y-117622023D01*
X274974242Y-117363085D01*
X275602427Y-117173312D01*
X276236535Y-117056525D01*
X276866799Y-117016545D01*
X277186054Y-117027125D01*
X277878002Y-117113655D01*
X278538736Y-117275198D01*
X279163764Y-117507684D01*
X279748597Y-117807041D01*
X280288744Y-118169199D01*
X280779713Y-118590087D01*
X281217016Y-119065636D01*
X281596160Y-119591774D01*
X281912655Y-120164430D01*
X282162012Y-120779535D01*
X282339738Y-121433017D01*
X282397007Y-121750666D01*
X282455533Y-122410969D01*
X282433018Y-123069278D01*
X282332429Y-123717771D01*
X282156735Y-124348631D01*
X281908905Y-124954036D01*
X281591907Y-125526168D01*
X281208709Y-126057206D01*
X280762280Y-126539331D01*
X280485961Y-126784881D01*
X279925472Y-127196035D01*
X279334608Y-127530184D01*
X278718518Y-127787175D01*
X278082355Y-127966855D01*
X277431269Y-128069070D01*
X276770412Y-128093668D01*
X276104933Y-128040497D01*
X275439985Y-127909402D01*
X274780717Y-127700232D01*
X274132282Y-127412832D01*
X273499830Y-127047051D01*
X273420417Y-126994647D01*
X273218939Y-126854758D01*
X273011049Y-126702065D01*
X272825558Y-126558120D01*
X272724194Y-126473864D01*
X272597140Y-126367585D01*
X272493513Y-126288761D01*
X272429886Y-126249692D01*
X272419654Y-126247824D01*
X272384117Y-126281092D01*
X272299721Y-126369278D01*
X272174041Y-126504186D01*
X272014653Y-126677616D01*
X271829132Y-126881371D01*
X271625052Y-127107253D01*
X271607282Y-127127000D01*
X270826559Y-127994833D01*
X270959321Y-128136317D01*
X271101885Y-128275139D01*
X271295949Y-128445737D01*
X271522698Y-128632724D01*
X271763318Y-128820712D01*
X271998993Y-128994315D01*
X272065750Y-129041174D01*
X272761118Y-129474455D01*
X273505929Y-129848241D01*
X274284142Y-130155975D01*
X275079719Y-130391099D01*
X275669036Y-130514290D01*
X275914117Y-130548422D01*
X276211849Y-130577743D01*
X276537863Y-130600971D01*
X276867792Y-130616822D01*
X277177267Y-130624015D01*
X277441922Y-130621267D01*
X277569083Y-130614310D01*
X278445548Y-130504426D01*
X279285563Y-130318340D01*
X280090121Y-130055790D01*
X280744083Y-129773645D01*
X281443516Y-129390405D01*
X282096943Y-128940194D01*
X282699939Y-128428690D01*
X283248078Y-127861566D01*
X283736934Y-127244498D01*
X284162082Y-126583162D01*
X284519097Y-125883234D01*
X284803551Y-125150388D01*
X285011020Y-124390301D01*
X285036185Y-124269500D01*
X285163919Y-123427695D01*
X285209276Y-122598213D01*
X285172775Y-121783775D01*
X285054934Y-120987105D01*
X284856269Y-120210923D01*
X284577299Y-119457951D01*
X284218541Y-118730912D01*
X283876924Y-118173500D01*
X283401875Y-117537855D01*
X282868514Y-116959599D01*
X282282359Y-116440493D01*
X281648930Y-115982301D01*
X280973746Y-115586788D01*
X280262325Y-115255717D01*
X279520187Y-114990851D01*
X278752851Y-114793954D01*
X277965835Y-114666790D01*
X277164659Y-114611123D01*
X276354842Y-114628715D01*
X276354842Y-114628715D01*
G37*
X276354842Y-114628715D02*
X275541903Y-114721331D01*
X274731360Y-114890734D01*
X274145104Y-115063648D01*
X273781338Y-115196829D01*
X273386716Y-115362265D01*
X272987839Y-115547461D01*
X272611309Y-115739919D01*
X272283728Y-115927144D01*
X272213917Y-115970825D01*
X271993919Y-116117550D01*
X271768634Y-116278556D01*
X271548276Y-116445346D01*
X271343062Y-116609423D01*
X271163206Y-116762289D01*
X271018924Y-116895448D01*
X270920432Y-117000402D01*
X270877945Y-117068654D01*
X270878066Y-117081972D01*
X270908860Y-117127384D01*
X270985978Y-117229892D01*
X271102563Y-117380708D01*
X271251759Y-117571047D01*
X271426711Y-117792121D01*
X271620563Y-118035143D01*
X271666671Y-118092682D01*
X272435092Y-119050794D01*
X272716088Y-118775624D01*
X273222904Y-118332114D01*
X273774713Y-117946306D01*
X274361748Y-117622023D01*
X274974242Y-117363085D01*
X275602427Y-117173312D01*
X276236535Y-117056525D01*
X276866799Y-117016545D01*
X277186054Y-117027125D01*
X277878002Y-117113655D01*
X278538736Y-117275198D01*
X279163764Y-117507684D01*
X279748597Y-117807041D01*
X280288744Y-118169199D01*
X280779713Y-118590087D01*
X281217016Y-119065636D01*
X281596160Y-119591774D01*
X281912655Y-120164430D01*
X282162012Y-120779535D01*
X282339738Y-121433017D01*
X282397007Y-121750666D01*
X282455533Y-122410969D01*
X282433018Y-123069278D01*
X282332429Y-123717771D01*
X282156735Y-124348631D01*
X281908905Y-124954036D01*
X281591907Y-125526168D01*
X281208709Y-126057206D01*
X280762280Y-126539331D01*
X280485961Y-126784881D01*
X279925472Y-127196035D01*
X279334608Y-127530184D01*
X278718518Y-127787175D01*
X278082355Y-127966855D01*
X277431269Y-128069070D01*
X276770412Y-128093668D01*
X276104933Y-128040497D01*
X275439985Y-127909402D01*
X274780717Y-127700232D01*
X274132282Y-127412832D01*
X273499830Y-127047051D01*
X273420417Y-126994647D01*
X273218939Y-126854758D01*
X273011049Y-126702065D01*
X272825558Y-126558120D01*
X272724194Y-126473864D01*
X272597140Y-126367585D01*
X272493513Y-126288761D01*
X272429886Y-126249692D01*
X272419654Y-126247824D01*
X272384117Y-126281092D01*
X272299721Y-126369278D01*
X272174041Y-126504186D01*
X272014653Y-126677616D01*
X271829132Y-126881371D01*
X271625052Y-127107253D01*
X271607282Y-127127000D01*
X270826559Y-127994833D01*
X270959321Y-128136317D01*
X271101885Y-128275139D01*
X271295949Y-128445737D01*
X271522698Y-128632724D01*
X271763318Y-128820712D01*
X271998993Y-128994315D01*
X272065750Y-129041174D01*
X272761118Y-129474455D01*
X273505929Y-129848241D01*
X274284142Y-130155975D01*
X275079719Y-130391099D01*
X275669036Y-130514290D01*
X275914117Y-130548422D01*
X276211849Y-130577743D01*
X276537863Y-130600971D01*
X276867792Y-130616822D01*
X277177267Y-130624015D01*
X277441922Y-130621267D01*
X277569083Y-130614310D01*
X278445548Y-130504426D01*
X279285563Y-130318340D01*
X280090121Y-130055790D01*
X280744083Y-129773645D01*
X281443516Y-129390405D01*
X282096943Y-128940194D01*
X282699939Y-128428690D01*
X283248078Y-127861566D01*
X283736934Y-127244498D01*
X284162082Y-126583162D01*
X284519097Y-125883234D01*
X284803551Y-125150388D01*
X285011020Y-124390301D01*
X285036185Y-124269500D01*
X285163919Y-123427695D01*
X285209276Y-122598213D01*
X285172775Y-121783775D01*
X285054934Y-120987105D01*
X284856269Y-120210923D01*
X284577299Y-119457951D01*
X284218541Y-118730912D01*
X283876924Y-118173500D01*
X283401875Y-117537855D01*
X282868514Y-116959599D01*
X282282359Y-116440493D01*
X281648930Y-115982301D01*
X280973746Y-115586788D01*
X280262325Y-115255717D01*
X279520187Y-114990851D01*
X278752851Y-114793954D01*
X277965835Y-114666790D01*
X277164659Y-114611123D01*
X276354842Y-114628715D01*
G36*
X263916334Y-119517583D02*
G01*
X263916266Y-120295786D01*
X263916006Y-120994318D01*
X263915343Y-121618174D01*
X263914068Y-122172352D01*
X263911970Y-122661846D01*
X263908837Y-123091652D01*
X263904460Y-123466766D01*
X263898628Y-123792184D01*
X263891131Y-124072902D01*
X263881757Y-124313915D01*
X263870298Y-124520219D01*
X263856541Y-124696810D01*
X263840277Y-124848683D01*
X263821295Y-124980835D01*
X263799384Y-125098261D01*
X263774335Y-125205958D01*
X263745936Y-125308920D01*
X263713977Y-125412143D01*
X263678248Y-125520624D01*
X263661250Y-125571394D01*
X263524945Y-125935111D01*
X263371420Y-126250479D01*
X263181731Y-126553801D01*
X263062433Y-126718924D01*
X262747366Y-127072864D01*
X262364187Y-127391143D01*
X261924608Y-127666331D01*
X261440341Y-127890995D01*
X260973423Y-128044537D01*
X260820792Y-128083875D01*
X260687122Y-128112936D01*
X260555073Y-128133280D01*
X260407303Y-128146464D01*
X260226474Y-128154050D01*
X259995246Y-128157595D01*
X259704417Y-128158651D01*
X259407807Y-128158216D01*
X259178546Y-128155158D01*
X258999323Y-128147948D01*
X258852827Y-128135056D01*
X258721748Y-128114952D01*
X258588774Y-128086105D01*
X258436595Y-128046986D01*
X258434417Y-128046404D01*
X257874075Y-127857458D01*
X257370622Y-127606183D01*
X256925287Y-127294050D01*
X256539303Y-126922533D01*
X256213901Y-126493105D01*
X255950311Y-126007237D01*
X255749766Y-125466404D01*
X255613497Y-124872077D01*
X255578570Y-124630443D01*
X255571074Y-124524754D01*
X255564223Y-124336540D01*
X255558035Y-124067939D01*
X255552529Y-123721091D01*
X255547723Y-123298135D01*
X255543635Y-122801209D01*
X255540283Y-122232453D01*
X255537686Y-121594006D01*
X255535862Y-120888006D01*
X255534828Y-120116593D01*
X255534583Y-119476360D01*
X255534583Y-114681000D01*
X252825250Y-114681000D01*
X252825395Y-119475250D01*
X252825564Y-120264681D01*
X252826118Y-120974559D01*
X252827197Y-121609995D01*
X252828947Y-122176101D01*
X252831508Y-122677991D01*
X252835024Y-123120775D01*
X252839638Y-123509568D01*
X252845492Y-123849479D01*
X252852729Y-124145623D01*
X252861492Y-124403112D01*
X252871923Y-124627057D01*
X252884166Y-124822570D01*
X252898363Y-124994766D01*
X252914656Y-125148754D01*
X252933189Y-125289649D01*
X252954104Y-125422562D01*
X252977543Y-125552605D01*
X252997987Y-125656908D01*
X253181884Y-126376055D01*
X253433468Y-127047106D01*
X253750838Y-127667716D01*
X254132091Y-128235535D01*
X254575326Y-128748216D01*
X255078641Y-129203411D01*
X255640133Y-129598772D01*
X256257901Y-129931952D01*
X256571750Y-130068252D01*
X257243364Y-130298055D01*
X257965239Y-130468807D01*
X258725461Y-130578926D01*
X259512115Y-130626829D01*
X260313286Y-130610934D01*
X260537031Y-130594965D01*
X261293174Y-130499186D01*
X262016778Y-130341067D01*
X262700738Y-130123352D01*
X263337948Y-129848786D01*
X263921303Y-129520112D01*
X264443698Y-129140076D01*
X264559476Y-129041298D01*
X265029564Y-128578953D01*
X265436548Y-128073486D01*
X265783113Y-127519896D01*
X266071947Y-126913180D01*
X266305738Y-126248334D01*
X266487172Y-125520356D01*
X266508667Y-125412500D01*
X266522133Y-125341317D01*
X266534205Y-125271200D01*
X266544977Y-125197295D01*
X266554539Y-125114750D01*
X266562982Y-125018713D01*
X266570397Y-124904331D01*
X266576878Y-124766750D01*
X266582513Y-124601119D01*
X266587396Y-124402585D01*
X266591617Y-124166295D01*
X266595268Y-123887396D01*
X266598440Y-123561036D01*
X266601225Y-123182362D01*
X266603713Y-122746521D01*
X266605997Y-122248661D01*
X266608167Y-121683929D01*
X266610316Y-121047473D01*
X266612534Y-120334439D01*
X266614097Y-119813916D01*
X266629405Y-114681000D01*
X263916583Y-114681000D01*
X263916334Y-119517583D01*
X263916334Y-119517583D01*
G37*
X263916334Y-119517583D02*
X263916266Y-120295786D01*
X263916006Y-120994318D01*
X263915343Y-121618174D01*
X263914068Y-122172352D01*
X263911970Y-122661846D01*
X263908837Y-123091652D01*
X263904460Y-123466766D01*
X263898628Y-123792184D01*
X263891131Y-124072902D01*
X263881757Y-124313915D01*
X263870298Y-124520219D01*
X263856541Y-124696810D01*
X263840277Y-124848683D01*
X263821295Y-124980835D01*
X263799384Y-125098261D01*
X263774335Y-125205958D01*
X263745936Y-125308920D01*
X263713977Y-125412143D01*
X263678248Y-125520624D01*
X263661250Y-125571394D01*
X263524945Y-125935111D01*
X263371420Y-126250479D01*
X263181731Y-126553801D01*
X263062433Y-126718924D01*
X262747366Y-127072864D01*
X262364187Y-127391143D01*
X261924608Y-127666331D01*
X261440341Y-127890995D01*
X260973423Y-128044537D01*
X260820792Y-128083875D01*
X260687122Y-128112936D01*
X260555073Y-128133280D01*
X260407303Y-128146464D01*
X260226474Y-128154050D01*
X259995246Y-128157595D01*
X259704417Y-128158651D01*
X259407807Y-128158216D01*
X259178546Y-128155158D01*
X258999323Y-128147948D01*
X258852827Y-128135056D01*
X258721748Y-128114952D01*
X258588774Y-128086105D01*
X258436595Y-128046986D01*
X258434417Y-128046404D01*
X257874075Y-127857458D01*
X257370622Y-127606183D01*
X256925287Y-127294050D01*
X256539303Y-126922533D01*
X256213901Y-126493105D01*
X255950311Y-126007237D01*
X255749766Y-125466404D01*
X255613497Y-124872077D01*
X255578570Y-124630443D01*
X255571074Y-124524754D01*
X255564223Y-124336540D01*
X255558035Y-124067939D01*
X255552529Y-123721091D01*
X255547723Y-123298135D01*
X255543635Y-122801209D01*
X255540283Y-122232453D01*
X255537686Y-121594006D01*
X255535862Y-120888006D01*
X255534828Y-120116593D01*
X255534583Y-119476360D01*
X255534583Y-114681000D01*
X252825250Y-114681000D01*
X252825395Y-119475250D01*
X252825564Y-120264681D01*
X252826118Y-120974559D01*
X252827197Y-121609995D01*
X252828947Y-122176101D01*
X252831508Y-122677991D01*
X252835024Y-123120775D01*
X252839638Y-123509568D01*
X252845492Y-123849479D01*
X252852729Y-124145623D01*
X252861492Y-124403112D01*
X252871923Y-124627057D01*
X252884166Y-124822570D01*
X252898363Y-124994766D01*
X252914656Y-125148754D01*
X252933189Y-125289649D01*
X252954104Y-125422562D01*
X252977543Y-125552605D01*
X252997987Y-125656908D01*
X253181884Y-126376055D01*
X253433468Y-127047106D01*
X253750838Y-127667716D01*
X254132091Y-128235535D01*
X254575326Y-128748216D01*
X255078641Y-129203411D01*
X255640133Y-129598772D01*
X256257901Y-129931952D01*
X256571750Y-130068252D01*
X257243364Y-130298055D01*
X257965239Y-130468807D01*
X258725461Y-130578926D01*
X259512115Y-130626829D01*
X260313286Y-130610934D01*
X260537031Y-130594965D01*
X261293174Y-130499186D01*
X262016778Y-130341067D01*
X262700738Y-130123352D01*
X263337948Y-129848786D01*
X263921303Y-129520112D01*
X264443698Y-129140076D01*
X264559476Y-129041298D01*
X265029564Y-128578953D01*
X265436548Y-128073486D01*
X265783113Y-127519896D01*
X266071947Y-126913180D01*
X266305738Y-126248334D01*
X266487172Y-125520356D01*
X266508667Y-125412500D01*
X266522133Y-125341317D01*
X266534205Y-125271200D01*
X266544977Y-125197295D01*
X266554539Y-125114750D01*
X266562982Y-125018713D01*
X266570397Y-124904331D01*
X266576878Y-124766750D01*
X266582513Y-124601119D01*
X266587396Y-124402585D01*
X266591617Y-124166295D01*
X266595268Y-123887396D01*
X266598440Y-123561036D01*
X266601225Y-123182362D01*
X266603713Y-122746521D01*
X266605997Y-122248661D01*
X266608167Y-121683929D01*
X266610316Y-121047473D01*
X266612534Y-120334439D01*
X266614097Y-119813916D01*
X266629405Y-114681000D01*
X263916583Y-114681000D01*
X263916334Y-119517583D01*
G36*
X241321229Y-114597057D02*
G01*
X240664082Y-114652463D01*
X240033244Y-114750547D01*
X239403149Y-114895533D01*
X238748234Y-115091644D01*
X238569853Y-115151833D01*
X238281482Y-115257630D01*
X237983975Y-115378289D01*
X237687267Y-115508625D01*
X237401295Y-115643454D01*
X237135995Y-115777593D01*
X236901303Y-115905856D01*
X236707156Y-116023059D01*
X236563489Y-116124019D01*
X236480239Y-116203551D01*
X236464379Y-116250365D01*
X236487131Y-116303956D01*
X236540214Y-116420711D01*
X236618149Y-116589056D01*
X236715456Y-116797416D01*
X236826657Y-117034214D01*
X236946273Y-117287875D01*
X237068825Y-117546824D01*
X237188833Y-117799486D01*
X237300818Y-118034286D01*
X237399303Y-118239647D01*
X237478807Y-118403994D01*
X237533852Y-118515753D01*
X237558958Y-118563347D01*
X237559522Y-118564049D01*
X237599875Y-118550349D01*
X237699317Y-118502261D01*
X237843297Y-118427172D01*
X238017261Y-118332471D01*
X238034176Y-118323080D01*
X238622878Y-118021619D01*
X239233061Y-117757691D01*
X239852910Y-117534330D01*
X240470606Y-117354573D01*
X241074335Y-117221453D01*
X241652279Y-117138007D01*
X242192621Y-117107270D01*
X242674210Y-117131202D01*
X243097574Y-117192201D01*
X243451840Y-117273748D01*
X243751255Y-117381494D01*
X244010067Y-117521094D01*
X244242524Y-117698201D01*
X244344726Y-117794019D01*
X244530735Y-118006196D01*
X244652654Y-118219486D01*
X244718393Y-118455908D01*
X244735862Y-118737481D01*
X244731017Y-118869240D01*
X244676787Y-119210905D01*
X244553422Y-119523699D01*
X244357846Y-119811400D01*
X244086983Y-120077788D01*
X243737757Y-120326643D01*
X243384917Y-120523223D01*
X243204926Y-120609261D01*
X243002128Y-120696331D01*
X242766674Y-120787968D01*
X242488719Y-120887708D01*
X242158416Y-120999087D01*
X241765916Y-121125640D01*
X241310583Y-121268055D01*
X240710373Y-121457355D01*
X240184231Y-121631586D01*
X239723614Y-121794238D01*
X239319984Y-121948799D01*
X238964800Y-122098759D01*
X238649520Y-122247608D01*
X238365605Y-122398834D01*
X238104514Y-122555928D01*
X238013870Y-122614985D01*
X237546658Y-122972839D01*
X237146938Y-123379125D01*
X236817042Y-123830490D01*
X236559303Y-124323577D01*
X236376053Y-124855032D01*
X236333774Y-125031500D01*
X236292444Y-125297149D01*
X236267199Y-125617593D01*
X236258047Y-125965899D01*
X236264999Y-126315137D01*
X236288065Y-126638377D01*
X236327253Y-126908690D01*
X236333085Y-126936500D01*
X236493927Y-127489597D01*
X236725786Y-128016938D01*
X236825846Y-128197354D01*
X236958332Y-128390376D01*
X237142418Y-128614888D01*
X237360783Y-128853205D01*
X237596108Y-129087643D01*
X237831070Y-129300515D01*
X238048350Y-129474137D01*
X238135583Y-129534647D01*
X238708905Y-129860434D01*
X239342055Y-130130326D01*
X240029770Y-130342574D01*
X240766791Y-130495428D01*
X241204750Y-130555065D01*
X241441912Y-130573847D01*
X241739598Y-130585772D01*
X242073946Y-130590900D01*
X242421096Y-130589290D01*
X242757188Y-130581002D01*
X243058360Y-130566095D01*
X243253382Y-130549943D01*
X244051856Y-130426924D01*
X244856217Y-130226978D01*
X245653324Y-129955681D01*
X246430036Y-129618608D01*
X247173210Y-129221332D01*
X247869704Y-128769429D01*
X248381863Y-128374487D01*
X248716551Y-128095333D01*
X248141526Y-126944416D01*
X247997477Y-126656652D01*
X247865428Y-126393910D01*
X247750153Y-126165609D01*
X247656426Y-125981165D01*
X247589022Y-125849995D01*
X247552716Y-125781516D01*
X247548012Y-125773830D01*
X247531960Y-125767003D01*
X247501704Y-125778894D01*
X247446121Y-125817666D01*
X247354086Y-125891481D01*
X247214477Y-126008501D01*
X247126355Y-126083215D01*
X246843714Y-126306567D01*
X246506598Y-126546048D01*
X246139058Y-126786125D01*
X245765145Y-127011267D01*
X245408908Y-127205942D01*
X245313862Y-127253733D01*
X244671219Y-127536213D01*
X244016705Y-127759902D01*
X243362016Y-127922451D01*
X242718848Y-128021511D01*
X242098896Y-128054733D01*
X241513856Y-128019766D01*
X241505695Y-128018746D01*
X240973690Y-127925329D01*
X240513237Y-127787720D01*
X240123328Y-127605351D01*
X239802953Y-127377658D01*
X239551105Y-127104074D01*
X239388081Y-126830666D01*
X239325369Y-126690181D01*
X239286675Y-126571700D01*
X239266401Y-126445838D01*
X239258952Y-126283208D01*
X239258324Y-126149301D01*
X239260981Y-125952994D01*
X239272329Y-125811019D01*
X239299002Y-125693066D01*
X239347636Y-125568826D01*
X239417183Y-125423510D01*
X239536003Y-125212503D01*
X239678039Y-125019624D01*
X239849705Y-124841316D01*
X240057416Y-124674025D01*
X240307588Y-124514195D01*
X240606634Y-124358270D01*
X240960971Y-124202694D01*
X241377013Y-124043912D01*
X241861175Y-123878368D01*
X242419871Y-123702506D01*
X242644083Y-123634911D01*
X243270167Y-123444704D01*
X243821208Y-123269502D01*
X244304791Y-123105858D01*
X244728506Y-122950323D01*
X245099939Y-122799446D01*
X245426676Y-122649780D01*
X245716307Y-122497875D01*
X245976416Y-122340282D01*
X246214593Y-122173553D01*
X246438423Y-121994238D01*
X246629765Y-121823092D01*
X246989939Y-121429364D01*
X247284986Y-120986646D01*
X247513037Y-120502220D01*
X247672226Y-119983369D01*
X247760682Y-119437375D01*
X247776540Y-118871521D01*
X247717931Y-118293090D01*
X247635753Y-117900871D01*
X247458877Y-117372144D01*
X247207347Y-116879401D01*
X246884555Y-116425794D01*
X246493887Y-116014477D01*
X246038734Y-115648601D01*
X245522485Y-115331320D01*
X244948529Y-115065786D01*
X244379750Y-114872013D01*
X243969198Y-114764746D01*
X243567331Y-114684667D01*
X243152830Y-114629129D01*
X242704378Y-114595482D01*
X242200656Y-114581077D01*
X242030250Y-114580106D01*
X241321229Y-114597057D01*
X241321229Y-114597057D01*
G37*
X241321229Y-114597057D02*
X240664082Y-114652463D01*
X240033244Y-114750547D01*
X239403149Y-114895533D01*
X238748234Y-115091644D01*
X238569853Y-115151833D01*
X238281482Y-115257630D01*
X237983975Y-115378289D01*
X237687267Y-115508625D01*
X237401295Y-115643454D01*
X237135995Y-115777593D01*
X236901303Y-115905856D01*
X236707156Y-116023059D01*
X236563489Y-116124019D01*
X236480239Y-116203551D01*
X236464379Y-116250365D01*
X236487131Y-116303956D01*
X236540214Y-116420711D01*
X236618149Y-116589056D01*
X236715456Y-116797416D01*
X236826657Y-117034214D01*
X236946273Y-117287875D01*
X237068825Y-117546824D01*
X237188833Y-117799486D01*
X237300818Y-118034286D01*
X237399303Y-118239647D01*
X237478807Y-118403994D01*
X237533852Y-118515753D01*
X237558958Y-118563347D01*
X237559522Y-118564049D01*
X237599875Y-118550349D01*
X237699317Y-118502261D01*
X237843297Y-118427172D01*
X238017261Y-118332471D01*
X238034176Y-118323080D01*
X238622878Y-118021619D01*
X239233061Y-117757691D01*
X239852910Y-117534330D01*
X240470606Y-117354573D01*
X241074335Y-117221453D01*
X241652279Y-117138007D01*
X242192621Y-117107270D01*
X242674210Y-117131202D01*
X243097574Y-117192201D01*
X243451840Y-117273748D01*
X243751255Y-117381494D01*
X244010067Y-117521094D01*
X244242524Y-117698201D01*
X244344726Y-117794019D01*
X244530735Y-118006196D01*
X244652654Y-118219486D01*
X244718393Y-118455908D01*
X244735862Y-118737481D01*
X244731017Y-118869240D01*
X244676787Y-119210905D01*
X244553422Y-119523699D01*
X244357846Y-119811400D01*
X244086983Y-120077788D01*
X243737757Y-120326643D01*
X243384917Y-120523223D01*
X243204926Y-120609261D01*
X243002128Y-120696331D01*
X242766674Y-120787968D01*
X242488719Y-120887708D01*
X242158416Y-120999087D01*
X241765916Y-121125640D01*
X241310583Y-121268055D01*
X240710373Y-121457355D01*
X240184231Y-121631586D01*
X239723614Y-121794238D01*
X239319984Y-121948799D01*
X238964800Y-122098759D01*
X238649520Y-122247608D01*
X238365605Y-122398834D01*
X238104514Y-122555928D01*
X238013870Y-122614985D01*
X237546658Y-122972839D01*
X237146938Y-123379125D01*
X236817042Y-123830490D01*
X236559303Y-124323577D01*
X236376053Y-124855032D01*
X236333774Y-125031500D01*
X236292444Y-125297149D01*
X236267199Y-125617593D01*
X236258047Y-125965899D01*
X236264999Y-126315137D01*
X236288065Y-126638377D01*
X236327253Y-126908690D01*
X236333085Y-126936500D01*
X236493927Y-127489597D01*
X236725786Y-128016938D01*
X236825846Y-128197354D01*
X236958332Y-128390376D01*
X237142418Y-128614888D01*
X237360783Y-128853205D01*
X237596108Y-129087643D01*
X237831070Y-129300515D01*
X238048350Y-129474137D01*
X238135583Y-129534647D01*
X238708905Y-129860434D01*
X239342055Y-130130326D01*
X240029770Y-130342574D01*
X240766791Y-130495428D01*
X241204750Y-130555065D01*
X241441912Y-130573847D01*
X241739598Y-130585772D01*
X242073946Y-130590900D01*
X242421096Y-130589290D01*
X242757188Y-130581002D01*
X243058360Y-130566095D01*
X243253382Y-130549943D01*
X244051856Y-130426924D01*
X244856217Y-130226978D01*
X245653324Y-129955681D01*
X246430036Y-129618608D01*
X247173210Y-129221332D01*
X247869704Y-128769429D01*
X248381863Y-128374487D01*
X248716551Y-128095333D01*
X248141526Y-126944416D01*
X247997477Y-126656652D01*
X247865428Y-126393910D01*
X247750153Y-126165609D01*
X247656426Y-125981165D01*
X247589022Y-125849995D01*
X247552716Y-125781516D01*
X247548012Y-125773830D01*
X247531960Y-125767003D01*
X247501704Y-125778894D01*
X247446121Y-125817666D01*
X247354086Y-125891481D01*
X247214477Y-126008501D01*
X247126355Y-126083215D01*
X246843714Y-126306567D01*
X246506598Y-126546048D01*
X246139058Y-126786125D01*
X245765145Y-127011267D01*
X245408908Y-127205942D01*
X245313862Y-127253733D01*
X244671219Y-127536213D01*
X244016705Y-127759902D01*
X243362016Y-127922451D01*
X242718848Y-128021511D01*
X242098896Y-128054733D01*
X241513856Y-128019766D01*
X241505695Y-128018746D01*
X240973690Y-127925329D01*
X240513237Y-127787720D01*
X240123328Y-127605351D01*
X239802953Y-127377658D01*
X239551105Y-127104074D01*
X239388081Y-126830666D01*
X239325369Y-126690181D01*
X239286675Y-126571700D01*
X239266401Y-126445838D01*
X239258952Y-126283208D01*
X239258324Y-126149301D01*
X239260981Y-125952994D01*
X239272329Y-125811019D01*
X239299002Y-125693066D01*
X239347636Y-125568826D01*
X239417183Y-125423510D01*
X239536003Y-125212503D01*
X239678039Y-125019624D01*
X239849705Y-124841316D01*
X240057416Y-124674025D01*
X240307588Y-124514195D01*
X240606634Y-124358270D01*
X240960971Y-124202694D01*
X241377013Y-124043912D01*
X241861175Y-123878368D01*
X242419871Y-123702506D01*
X242644083Y-123634911D01*
X243270167Y-123444704D01*
X243821208Y-123269502D01*
X244304791Y-123105858D01*
X244728506Y-122950323D01*
X245099939Y-122799446D01*
X245426676Y-122649780D01*
X245716307Y-122497875D01*
X245976416Y-122340282D01*
X246214593Y-122173553D01*
X246438423Y-121994238D01*
X246629765Y-121823092D01*
X246989939Y-121429364D01*
X247284986Y-120986646D01*
X247513037Y-120502220D01*
X247672226Y-119983369D01*
X247760682Y-119437375D01*
X247776540Y-118871521D01*
X247717931Y-118293090D01*
X247635753Y-117900871D01*
X247458877Y-117372144D01*
X247207347Y-116879401D01*
X246884555Y-116425794D01*
X246493887Y-116014477D01*
X246038734Y-115648601D01*
X245522485Y-115331320D01*
X244948529Y-115065786D01*
X244379750Y-114872013D01*
X243969198Y-114764746D01*
X243567331Y-114684667D01*
X243152830Y-114629129D01*
X242704378Y-114595482D01*
X242200656Y-114581077D01*
X242030250Y-114580106D01*
X241321229Y-114597057D01*
G36*
X332010160Y-114691483D02*
G01*
X330613570Y-114702166D01*
X330077543Y-115929833D01*
X330001365Y-116104236D01*
X329893457Y-116351182D01*
X329756017Y-116665645D01*
X329591242Y-117042596D01*
X329401332Y-117477008D01*
X329188483Y-117963855D01*
X328954896Y-118498107D01*
X328702767Y-119074738D01*
X328434295Y-119688721D01*
X328151678Y-120335027D01*
X327857115Y-121008629D01*
X327552803Y-121704501D01*
X327240941Y-122417614D01*
X326923728Y-123142940D01*
X326653200Y-123761500D01*
X326342443Y-124472185D01*
X326040761Y-125162426D01*
X325749911Y-125828184D01*
X325471653Y-126465420D01*
X325207746Y-127070097D01*
X324959949Y-127638175D01*
X324730021Y-128165616D01*
X324519720Y-128648383D01*
X324330807Y-129082436D01*
X324165041Y-129463738D01*
X324024179Y-129788250D01*
X323909982Y-130051933D01*
X323824208Y-130250750D01*
X323768616Y-130380662D01*
X323744966Y-130437630D01*
X323744296Y-130439583D01*
X323743122Y-130459515D01*
X323757308Y-130475523D01*
X323795043Y-130488035D01*
X323864516Y-130497479D01*
X323973917Y-130504282D01*
X324131436Y-130508870D01*
X324345263Y-130511672D01*
X324623585Y-130513115D01*
X324974595Y-130513626D01*
X325163933Y-130513666D01*
X326604156Y-130513666D01*
X327057161Y-129444750D01*
X327197307Y-129114136D01*
X327345687Y-128764224D01*
X327493367Y-128416076D01*
X327631414Y-128090753D01*
X327750891Y-127809315D01*
X327811538Y-127666535D01*
X328112909Y-126957237D01*
X332086783Y-126968035D01*
X336060658Y-126978833D01*
X336808037Y-128745652D01*
X337555417Y-130512471D01*
X338967529Y-130513068D01*
X339350643Y-130513005D01*
X339657319Y-130512167D01*
X339895787Y-130510115D01*
X340074277Y-130506414D01*
X340201017Y-130500628D01*
X340284237Y-130492319D01*
X340332164Y-130481051D01*
X340353030Y-130466387D01*
X340355062Y-130447891D01*
X340352540Y-130439583D01*
X340333013Y-130394067D01*
X340280930Y-130274780D01*
X340197917Y-130085413D01*
X340085597Y-129829655D01*
X339945598Y-129511197D01*
X339779542Y-129133728D01*
X339589057Y-128700939D01*
X339375766Y-128216519D01*
X339141295Y-127684158D01*
X338887269Y-127107547D01*
X338615313Y-126490375D01*
X338327051Y-125836332D01*
X338024110Y-125149108D01*
X337757616Y-124544666D01*
X335037720Y-124544666D01*
X332092487Y-124544666D01*
X331602106Y-124544223D01*
X331137725Y-124542940D01*
X330706091Y-124540893D01*
X330313949Y-124538153D01*
X329968043Y-124534794D01*
X329675119Y-124530889D01*
X329441922Y-124526512D01*
X329275198Y-124521734D01*
X329181691Y-124516630D01*
X329163405Y-124512916D01*
X329181959Y-124470065D01*
X329231137Y-124354874D01*
X329308552Y-124172972D01*
X329411816Y-123929983D01*
X329538542Y-123631535D01*
X329686341Y-123283255D01*
X329852825Y-122890768D01*
X330035608Y-122459702D01*
X330232301Y-121995683D01*
X330440516Y-121504338D01*
X330635640Y-121043764D01*
X330851810Y-120533702D01*
X331058421Y-120046691D01*
X331253111Y-119588272D01*
X331433516Y-119163987D01*
X331597273Y-118779375D01*
X331742019Y-118439979D01*
X331865391Y-118151340D01*
X331965027Y-117918998D01*
X332038563Y-117748496D01*
X332083636Y-117645374D01*
X332097927Y-117614764D01*
X332114695Y-117653584D01*
X332161618Y-117763534D01*
X332235802Y-117937792D01*
X332334352Y-118169536D01*
X332454374Y-118451946D01*
X332592972Y-118778200D01*
X332747254Y-119141479D01*
X332914324Y-119534960D01*
X333091288Y-119951822D01*
X333275252Y-120385245D01*
X333463320Y-120828408D01*
X333652600Y-121274489D01*
X333840195Y-121716667D01*
X334023212Y-122148122D01*
X334198757Y-122562033D01*
X334363934Y-122951578D01*
X334515850Y-123309936D01*
X334651610Y-123630286D01*
X334768319Y-123905808D01*
X334863084Y-124129680D01*
X334933009Y-124295081D01*
X334975200Y-124395191D01*
X334980184Y-124407083D01*
X335037720Y-124544666D01*
X337757616Y-124544666D01*
X337708115Y-124432394D01*
X337380689Y-123689878D01*
X337043459Y-122925252D01*
X336866094Y-122523149D01*
X333406750Y-114680799D01*
X332010160Y-114691483D01*
X332010160Y-114691483D01*
G37*
X332010160Y-114691483D02*
X330613570Y-114702166D01*
X330077543Y-115929833D01*
X330001365Y-116104236D01*
X329893457Y-116351182D01*
X329756017Y-116665645D01*
X329591242Y-117042596D01*
X329401332Y-117477008D01*
X329188483Y-117963855D01*
X328954896Y-118498107D01*
X328702767Y-119074738D01*
X328434295Y-119688721D01*
X328151678Y-120335027D01*
X327857115Y-121008629D01*
X327552803Y-121704501D01*
X327240941Y-122417614D01*
X326923728Y-123142940D01*
X326653200Y-123761500D01*
X326342443Y-124472185D01*
X326040761Y-125162426D01*
X325749911Y-125828184D01*
X325471653Y-126465420D01*
X325207746Y-127070097D01*
X324959949Y-127638175D01*
X324730021Y-128165616D01*
X324519720Y-128648383D01*
X324330807Y-129082436D01*
X324165041Y-129463738D01*
X324024179Y-129788250D01*
X323909982Y-130051933D01*
X323824208Y-130250750D01*
X323768616Y-130380662D01*
X323744966Y-130437630D01*
X323744296Y-130439583D01*
X323743122Y-130459515D01*
X323757308Y-130475523D01*
X323795043Y-130488035D01*
X323864516Y-130497479D01*
X323973917Y-130504282D01*
X324131436Y-130508870D01*
X324345263Y-130511672D01*
X324623585Y-130513115D01*
X324974595Y-130513626D01*
X325163933Y-130513666D01*
X326604156Y-130513666D01*
X327057161Y-129444750D01*
X327197307Y-129114136D01*
X327345687Y-128764224D01*
X327493367Y-128416076D01*
X327631414Y-128090753D01*
X327750891Y-127809315D01*
X327811538Y-127666535D01*
X328112909Y-126957237D01*
X332086783Y-126968035D01*
X336060658Y-126978833D01*
X336808037Y-128745652D01*
X337555417Y-130512471D01*
X338967529Y-130513068D01*
X339350643Y-130513005D01*
X339657319Y-130512167D01*
X339895787Y-130510115D01*
X340074277Y-130506414D01*
X340201017Y-130500628D01*
X340284237Y-130492319D01*
X340332164Y-130481051D01*
X340353030Y-130466387D01*
X340355062Y-130447891D01*
X340352540Y-130439583D01*
X340333013Y-130394067D01*
X340280930Y-130274780D01*
X340197917Y-130085413D01*
X340085597Y-129829655D01*
X339945598Y-129511197D01*
X339779542Y-129133728D01*
X339589057Y-128700939D01*
X339375766Y-128216519D01*
X339141295Y-127684158D01*
X338887269Y-127107547D01*
X338615313Y-126490375D01*
X338327051Y-125836332D01*
X338024110Y-125149108D01*
X337757616Y-124544666D01*
X335037720Y-124544666D01*
X332092487Y-124544666D01*
X331602106Y-124544223D01*
X331137725Y-124542940D01*
X330706091Y-124540893D01*
X330313949Y-124538153D01*
X329968043Y-124534794D01*
X329675119Y-124530889D01*
X329441922Y-124526512D01*
X329275198Y-124521734D01*
X329181691Y-124516630D01*
X329163405Y-124512916D01*
X329181959Y-124470065D01*
X329231137Y-124354874D01*
X329308552Y-124172972D01*
X329411816Y-123929983D01*
X329538542Y-123631535D01*
X329686341Y-123283255D01*
X329852825Y-122890768D01*
X330035608Y-122459702D01*
X330232301Y-121995683D01*
X330440516Y-121504338D01*
X330635640Y-121043764D01*
X330851810Y-120533702D01*
X331058421Y-120046691D01*
X331253111Y-119588272D01*
X331433516Y-119163987D01*
X331597273Y-118779375D01*
X331742019Y-118439979D01*
X331865391Y-118151340D01*
X331965027Y-117918998D01*
X332038563Y-117748496D01*
X332083636Y-117645374D01*
X332097927Y-117614764D01*
X332114695Y-117653584D01*
X332161618Y-117763534D01*
X332235802Y-117937792D01*
X332334352Y-118169536D01*
X332454374Y-118451946D01*
X332592972Y-118778200D01*
X332747254Y-119141479D01*
X332914324Y-119534960D01*
X333091288Y-119951822D01*
X333275252Y-120385245D01*
X333463320Y-120828408D01*
X333652600Y-121274489D01*
X333840195Y-121716667D01*
X334023212Y-122148122D01*
X334198757Y-122562033D01*
X334363934Y-122951578D01*
X334515850Y-123309936D01*
X334651610Y-123630286D01*
X334768319Y-123905808D01*
X334863084Y-124129680D01*
X334933009Y-124295081D01*
X334975200Y-124395191D01*
X334980184Y-124407083D01*
X335037720Y-124544666D01*
X337757616Y-124544666D01*
X337708115Y-124432394D01*
X337380689Y-123689878D01*
X337043459Y-122925252D01*
X336866094Y-122523149D01*
X333406750Y-114680799D01*
X332010160Y-114691483D01*
G36*
X315785500Y-114693618D02*
G01*
X315098142Y-114696440D01*
X314489567Y-114699070D01*
X313953891Y-114701802D01*
X313485234Y-114704930D01*
X313077712Y-114708747D01*
X312725442Y-114713548D01*
X312422542Y-114719625D01*
X312163130Y-114727274D01*
X311941322Y-114736787D01*
X311751238Y-114748458D01*
X311586993Y-114762582D01*
X311442705Y-114779452D01*
X311312492Y-114799362D01*
X311190472Y-114822605D01*
X311070761Y-114849476D01*
X310947478Y-114880268D01*
X310814739Y-114915275D01*
X310692202Y-114948001D01*
X310094038Y-115142786D01*
X309552676Y-115392160D01*
X309071029Y-115693352D01*
X308652006Y-116043593D01*
X308298518Y-116440112D01*
X308013477Y-116880140D01*
X307799792Y-117360906D01*
X307671644Y-117822465D01*
X307630880Y-118104368D01*
X307609723Y-118436704D01*
X307608176Y-118787538D01*
X307626243Y-119124937D01*
X307663928Y-119416967D01*
X307671474Y-119455868D01*
X307820375Y-119981354D01*
X308041082Y-120464253D01*
X308330050Y-120900584D01*
X308683734Y-121286366D01*
X309098589Y-121617621D01*
X309571069Y-121890368D01*
X309997435Y-122067019D01*
X310256325Y-122157482D01*
X309903364Y-122248726D01*
X309384085Y-122421570D01*
X308893043Y-122661102D01*
X308445937Y-122958430D01*
X308081824Y-123280545D01*
X307891975Y-123480729D01*
X307747126Y-123651890D01*
X307628152Y-123820293D01*
X307515927Y-124012202D01*
X307431999Y-124172902D01*
X307227208Y-124663031D01*
X307083326Y-125195797D01*
X307001993Y-125753375D01*
X306984849Y-126317940D01*
X307033535Y-126871665D01*
X307138742Y-127359221D01*
X307332832Y-127890572D01*
X307597336Y-128376171D01*
X307930814Y-128815047D01*
X308331826Y-129206226D01*
X308798929Y-129548736D01*
X309330684Y-129841606D01*
X309925650Y-130083863D01*
X310582385Y-130274534D01*
X311299449Y-130412648D01*
X311747152Y-130468775D01*
X311873908Y-130477114D01*
X312081786Y-130484697D01*
X312367247Y-130491484D01*
X312726748Y-130497440D01*
X313156749Y-130502526D01*
X313653710Y-130506705D01*
X314214088Y-130509941D01*
X314834344Y-130512194D01*
X315510937Y-130513428D01*
X315991069Y-130513666D01*
X319796583Y-130513666D01*
X319796583Y-128100666D01*
X317087250Y-128100666D01*
X315087000Y-128100563D01*
X314659871Y-128099620D01*
X314239369Y-128096963D01*
X313837079Y-128092783D01*
X313464582Y-128087273D01*
X313133464Y-128080626D01*
X312855309Y-128073033D01*
X312641699Y-128064687D01*
X312532361Y-128058167D01*
X311964511Y-127989807D01*
X311465259Y-127875885D01*
X311030996Y-127715053D01*
X310658114Y-127505965D01*
X310343007Y-127247272D01*
X310332043Y-127236364D01*
X310080612Y-126935284D01*
X309904884Y-126608273D01*
X309801957Y-126247257D01*
X309768930Y-125844165D01*
X309773796Y-125683582D01*
X309835517Y-125288206D01*
X309972192Y-124929752D01*
X310181776Y-124609927D01*
X310462227Y-124330438D01*
X310811501Y-124092995D01*
X311227556Y-123899305D01*
X311708348Y-123751075D01*
X312197750Y-123657514D01*
X312300429Y-123648930D01*
X312479516Y-123640978D01*
X312726754Y-123633794D01*
X313033887Y-123627517D01*
X313392658Y-123622284D01*
X313794808Y-123618235D01*
X314232083Y-123615507D01*
X314696224Y-123614238D01*
X314790667Y-123614171D01*
X317087250Y-123613333D01*
X317087250Y-128100666D01*
X319796583Y-128100666D01*
X319796583Y-121204208D01*
X317087250Y-121204208D01*
X314663667Y-121189345D01*
X314142262Y-121185942D01*
X313698412Y-121182474D01*
X313325006Y-121178701D01*
X313014931Y-121174386D01*
X312761077Y-121169288D01*
X312556330Y-121163170D01*
X312393581Y-121155791D01*
X312265717Y-121146913D01*
X312165626Y-121136296D01*
X312086198Y-121123703D01*
X312020320Y-121108894D01*
X311986083Y-121099362D01*
X311546176Y-120934553D01*
X311174315Y-120720883D01*
X310871295Y-120459240D01*
X310637910Y-120150509D01*
X310474953Y-119795577D01*
X310383218Y-119395329D01*
X310372373Y-119298013D01*
X310377860Y-118898795D01*
X310465143Y-118505287D01*
X310564200Y-118259732D01*
X310761140Y-117946305D01*
X311026754Y-117679443D01*
X311357760Y-117461094D01*
X311750877Y-117293204D01*
X312202824Y-117177719D01*
X312451750Y-117140006D01*
X312582948Y-117129645D01*
X312790917Y-117120325D01*
X313067767Y-117112190D01*
X313405609Y-117105385D01*
X313796552Y-117100053D01*
X314232705Y-117096340D01*
X314706179Y-117094389D01*
X314960000Y-117094119D01*
X317087250Y-117094000D01*
X317087250Y-121204208D01*
X319796583Y-121204208D01*
X319796583Y-114677016D01*
X315785500Y-114693618D01*
X315785500Y-114693618D01*
G37*
X315785500Y-114693618D02*
X315098142Y-114696440D01*
X314489567Y-114699070D01*
X313953891Y-114701802D01*
X313485234Y-114704930D01*
X313077712Y-114708747D01*
X312725442Y-114713548D01*
X312422542Y-114719625D01*
X312163130Y-114727274D01*
X311941322Y-114736787D01*
X311751238Y-114748458D01*
X311586993Y-114762582D01*
X311442705Y-114779452D01*
X311312492Y-114799362D01*
X311190472Y-114822605D01*
X311070761Y-114849476D01*
X310947478Y-114880268D01*
X310814739Y-114915275D01*
X310692202Y-114948001D01*
X310094038Y-115142786D01*
X309552676Y-115392160D01*
X309071029Y-115693352D01*
X308652006Y-116043593D01*
X308298518Y-116440112D01*
X308013477Y-116880140D01*
X307799792Y-117360906D01*
X307671644Y-117822465D01*
X307630880Y-118104368D01*
X307609723Y-118436704D01*
X307608176Y-118787538D01*
X307626243Y-119124937D01*
X307663928Y-119416967D01*
X307671474Y-119455868D01*
X307820375Y-119981354D01*
X308041082Y-120464253D01*
X308330050Y-120900584D01*
X308683734Y-121286366D01*
X309098589Y-121617621D01*
X309571069Y-121890368D01*
X309997435Y-122067019D01*
X310256325Y-122157482D01*
X309903364Y-122248726D01*
X309384085Y-122421570D01*
X308893043Y-122661102D01*
X308445937Y-122958430D01*
X308081824Y-123280545D01*
X307891975Y-123480729D01*
X307747126Y-123651890D01*
X307628152Y-123820293D01*
X307515927Y-124012202D01*
X307431999Y-124172902D01*
X307227208Y-124663031D01*
X307083326Y-125195797D01*
X307001993Y-125753375D01*
X306984849Y-126317940D01*
X307033535Y-126871665D01*
X307138742Y-127359221D01*
X307332832Y-127890572D01*
X307597336Y-128376171D01*
X307930814Y-128815047D01*
X308331826Y-129206226D01*
X308798929Y-129548736D01*
X309330684Y-129841606D01*
X309925650Y-130083863D01*
X310582385Y-130274534D01*
X311299449Y-130412648D01*
X311747152Y-130468775D01*
X311873908Y-130477114D01*
X312081786Y-130484697D01*
X312367247Y-130491484D01*
X312726748Y-130497440D01*
X313156749Y-130502526D01*
X313653710Y-130506705D01*
X314214088Y-130509941D01*
X314834344Y-130512194D01*
X315510937Y-130513428D01*
X315991069Y-130513666D01*
X319796583Y-130513666D01*
X319796583Y-128100666D01*
X317087250Y-128100666D01*
X315087000Y-128100563D01*
X314659871Y-128099620D01*
X314239369Y-128096963D01*
X313837079Y-128092783D01*
X313464582Y-128087273D01*
X313133464Y-128080626D01*
X312855309Y-128073033D01*
X312641699Y-128064687D01*
X312532361Y-128058167D01*
X311964511Y-127989807D01*
X311465259Y-127875885D01*
X311030996Y-127715053D01*
X310658114Y-127505965D01*
X310343007Y-127247272D01*
X310332043Y-127236364D01*
X310080612Y-126935284D01*
X309904884Y-126608273D01*
X309801957Y-126247257D01*
X309768930Y-125844165D01*
X309773796Y-125683582D01*
X309835517Y-125288206D01*
X309972192Y-124929752D01*
X310181776Y-124609927D01*
X310462227Y-124330438D01*
X310811501Y-124092995D01*
X311227556Y-123899305D01*
X311708348Y-123751075D01*
X312197750Y-123657514D01*
X312300429Y-123648930D01*
X312479516Y-123640978D01*
X312726754Y-123633794D01*
X313033887Y-123627517D01*
X313392658Y-123622284D01*
X313794808Y-123618235D01*
X314232083Y-123615507D01*
X314696224Y-123614238D01*
X314790667Y-123614171D01*
X317087250Y-123613333D01*
X317087250Y-128100666D01*
X319796583Y-128100666D01*
X319796583Y-121204208D01*
X317087250Y-121204208D01*
X314663667Y-121189345D01*
X314142262Y-121185942D01*
X313698412Y-121182474D01*
X313325006Y-121178701D01*
X313014931Y-121174386D01*
X312761077Y-121169288D01*
X312556330Y-121163170D01*
X312393581Y-121155791D01*
X312265717Y-121146913D01*
X312165626Y-121136296D01*
X312086198Y-121123703D01*
X312020320Y-121108894D01*
X311986083Y-121099362D01*
X311546176Y-120934553D01*
X311174315Y-120720883D01*
X310871295Y-120459240D01*
X310637910Y-120150509D01*
X310474953Y-119795577D01*
X310383218Y-119395329D01*
X310372373Y-119298013D01*
X310377860Y-118898795D01*
X310465143Y-118505287D01*
X310564200Y-118259732D01*
X310761140Y-117946305D01*
X311026754Y-117679443D01*
X311357760Y-117461094D01*
X311750877Y-117293204D01*
X312202824Y-117177719D01*
X312451750Y-117140006D01*
X312582948Y-117129645D01*
X312790917Y-117120325D01*
X313067767Y-117112190D01*
X313405609Y-117105385D01*
X313796552Y-117100053D01*
X314232705Y-117096340D01*
X314706179Y-117094389D01*
X314960000Y-117094119D01*
X317087250Y-117094000D01*
X317087250Y-121204208D01*
X319796583Y-121204208D01*
X319796583Y-114677016D01*
X315785500Y-114693618D01*
G36*
X290885068Y-122565023D02*
G01*
X290545729Y-123341716D01*
X290215365Y-124097801D01*
X289895579Y-124829616D01*
X289587971Y-125533499D01*
X289294143Y-126205788D01*
X289015697Y-126842818D01*
X288754233Y-127440929D01*
X288511354Y-127996458D01*
X288288660Y-128505741D01*
X288087754Y-128965116D01*
X287910236Y-129370921D01*
X287757709Y-129719493D01*
X287631774Y-130007169D01*
X287534032Y-130230288D01*
X287466084Y-130385185D01*
X287429533Y-130468200D01*
X287423379Y-130481916D01*
X287460058Y-130489360D01*
X287571876Y-130496176D01*
X287749304Y-130502155D01*
X287982816Y-130507086D01*
X288262886Y-130510760D01*
X288579984Y-130512967D01*
X288859002Y-130513535D01*
X290311417Y-130513404D01*
X291059833Y-128746118D01*
X291808250Y-126978833D01*
X299756934Y-126957237D01*
X300129082Y-127835868D01*
X300267748Y-128163119D01*
X300426401Y-128537317D01*
X300591905Y-128927493D01*
X300751122Y-129302674D01*
X300883351Y-129614083D01*
X301265473Y-130513666D01*
X302678195Y-130513666D01*
X303014420Y-130513361D01*
X303322005Y-130512496D01*
X303591140Y-130511143D01*
X303812018Y-130509376D01*
X303974831Y-130507269D01*
X304069770Y-130504896D01*
X304090597Y-130503083D01*
X304073730Y-130463911D01*
X304024263Y-130350927D01*
X303943799Y-130167768D01*
X303833943Y-129918072D01*
X303696299Y-129605475D01*
X303532470Y-129233616D01*
X303344060Y-128806131D01*
X303132674Y-128326660D01*
X302899915Y-127798837D01*
X302647388Y-127226303D01*
X302376696Y-126612693D01*
X302089444Y-125961645D01*
X301787234Y-125276797D01*
X301471673Y-124561787D01*
X301464116Y-124544666D01*
X298744976Y-124544666D01*
X295804250Y-124544666D01*
X295233680Y-124544578D01*
X294742001Y-124544214D01*
X294323437Y-124543428D01*
X293972211Y-124542073D01*
X293682549Y-124540003D01*
X293448674Y-124537070D01*
X293264811Y-124533128D01*
X293125184Y-124528029D01*
X293024017Y-124521628D01*
X292955534Y-124513776D01*
X292913959Y-124504328D01*
X292893516Y-124493135D01*
X292888430Y-124480052D01*
X292890581Y-124470583D01*
X292919882Y-124396600D01*
X292978243Y-124254797D01*
X293062769Y-124051977D01*
X293170565Y-123794942D01*
X293298738Y-123490497D01*
X293444391Y-123145442D01*
X293604632Y-122766582D01*
X293776566Y-122360720D01*
X293957298Y-121934657D01*
X294143933Y-121495197D01*
X294333577Y-121049142D01*
X294523335Y-120603296D01*
X294710314Y-120164461D01*
X294891618Y-119739441D01*
X295064352Y-119335037D01*
X295225624Y-118958053D01*
X295372537Y-118615292D01*
X295502198Y-118313556D01*
X295611712Y-118059649D01*
X295698184Y-117860372D01*
X295758720Y-117722530D01*
X295790426Y-117652925D01*
X295794480Y-117645667D01*
X295813903Y-117683531D01*
X295863915Y-117793828D01*
X295942126Y-117971012D01*
X296046147Y-118209536D01*
X296173588Y-118503854D01*
X296322058Y-118848421D01*
X296489166Y-119237689D01*
X296672524Y-119666113D01*
X296869740Y-120128147D01*
X297078425Y-120618244D01*
X297280760Y-121094500D01*
X298744976Y-124544666D01*
X301464116Y-124544666D01*
X301144362Y-123820251D01*
X300806907Y-123055828D01*
X300604484Y-122597333D01*
X297118692Y-114702166D01*
X295724328Y-114691023D01*
X294329963Y-114679881D01*
X290885068Y-122565023D01*
X290885068Y-122565023D01*
G37*
X290885068Y-122565023D02*
X290545729Y-123341716D01*
X290215365Y-124097801D01*
X289895579Y-124829616D01*
X289587971Y-125533499D01*
X289294143Y-126205788D01*
X289015697Y-126842818D01*
X288754233Y-127440929D01*
X288511354Y-127996458D01*
X288288660Y-128505741D01*
X288087754Y-128965116D01*
X287910236Y-129370921D01*
X287757709Y-129719493D01*
X287631774Y-130007169D01*
X287534032Y-130230288D01*
X287466084Y-130385185D01*
X287429533Y-130468200D01*
X287423379Y-130481916D01*
X287460058Y-130489360D01*
X287571876Y-130496176D01*
X287749304Y-130502155D01*
X287982816Y-130507086D01*
X288262886Y-130510760D01*
X288579984Y-130512967D01*
X288859002Y-130513535D01*
X290311417Y-130513404D01*
X291059833Y-128746118D01*
X291808250Y-126978833D01*
X299756934Y-126957237D01*
X300129082Y-127835868D01*
X300267748Y-128163119D01*
X300426401Y-128537317D01*
X300591905Y-128927493D01*
X300751122Y-129302674D01*
X300883351Y-129614083D01*
X301265473Y-130513666D01*
X302678195Y-130513666D01*
X303014420Y-130513361D01*
X303322005Y-130512496D01*
X303591140Y-130511143D01*
X303812018Y-130509376D01*
X303974831Y-130507269D01*
X304069770Y-130504896D01*
X304090597Y-130503083D01*
X304073730Y-130463911D01*
X304024263Y-130350927D01*
X303943799Y-130167768D01*
X303833943Y-129918072D01*
X303696299Y-129605475D01*
X303532470Y-129233616D01*
X303344060Y-128806131D01*
X303132674Y-128326660D01*
X302899915Y-127798837D01*
X302647388Y-127226303D01*
X302376696Y-126612693D01*
X302089444Y-125961645D01*
X301787234Y-125276797D01*
X301471673Y-124561787D01*
X301464116Y-124544666D01*
X298744976Y-124544666D01*
X295804250Y-124544666D01*
X295233680Y-124544578D01*
X294742001Y-124544214D01*
X294323437Y-124543428D01*
X293972211Y-124542073D01*
X293682549Y-124540003D01*
X293448674Y-124537070D01*
X293264811Y-124533128D01*
X293125184Y-124528029D01*
X293024017Y-124521628D01*
X292955534Y-124513776D01*
X292913959Y-124504328D01*
X292893516Y-124493135D01*
X292888430Y-124480052D01*
X292890581Y-124470583D01*
X292919882Y-124396600D01*
X292978243Y-124254797D01*
X293062769Y-124051977D01*
X293170565Y-123794942D01*
X293298738Y-123490497D01*
X293444391Y-123145442D01*
X293604632Y-122766582D01*
X293776566Y-122360720D01*
X293957298Y-121934657D01*
X294143933Y-121495197D01*
X294333577Y-121049142D01*
X294523335Y-120603296D01*
X294710314Y-120164461D01*
X294891618Y-119739441D01*
X295064352Y-119335037D01*
X295225624Y-118958053D01*
X295372537Y-118615292D01*
X295502198Y-118313556D01*
X295611712Y-118059649D01*
X295698184Y-117860372D01*
X295758720Y-117722530D01*
X295790426Y-117652925D01*
X295794480Y-117645667D01*
X295813903Y-117683531D01*
X295863915Y-117793828D01*
X295942126Y-117971012D01*
X296046147Y-118209536D01*
X296173588Y-118503854D01*
X296322058Y-118848421D01*
X296489166Y-119237689D01*
X296672524Y-119666113D01*
X296869740Y-120128147D01*
X297078425Y-120618244D01*
X297280760Y-121094500D01*
X298744976Y-124544666D01*
X301464116Y-124544666D01*
X301144362Y-123820251D01*
X300806907Y-123055828D01*
X300604484Y-122597333D01*
X297118692Y-114702166D01*
X295724328Y-114691023D01*
X294329963Y-114679881D01*
X290885068Y-122565023D01*
D11*
X96056267Y-129665000D02*
X95713733Y-129665000D01*
X96056267Y-130685000D02*
X95713733Y-130685000D01*
X109027500Y-128758767D02*
X109027500Y-128416233D01*
X110047500Y-128758767D02*
X110047500Y-128416233D01*
X147127500Y-128677517D02*
X147127500Y-128334983D01*
X148147500Y-128677517D02*
X148147500Y-128334983D01*
X186247500Y-128677517D02*
X186247500Y-128334983D01*
X185227500Y-128677517D02*
X185227500Y-128334983D01*
X223327500Y-128677517D02*
X223327500Y-128334983D01*
X224347500Y-128677517D02*
X224347500Y-128334983D01*
X262447500Y-128677517D02*
X262447500Y-128334983D01*
X261427500Y-128677517D02*
X261427500Y-128334983D01*
X299527500Y-128677517D02*
X299527500Y-128334983D01*
X300547500Y-128677517D02*
X300547500Y-128334983D01*
X326741250Y-128677517D02*
X326741250Y-128334983D01*
X325721250Y-128677517D02*
X325721250Y-128334983D01*
X329122500Y-147890017D02*
X329122500Y-147547483D01*
X328102500Y-147890017D02*
X328102500Y-147547483D01*
X334266000Y-166434983D02*
X334266000Y-166777517D01*
X333246000Y-166434983D02*
X333246000Y-166777517D01*
X307465000Y-164928733D02*
X307465000Y-165271267D01*
X308485000Y-164928733D02*
X308485000Y-165271267D01*
X253716250Y-165009983D02*
X253716250Y-165352517D01*
X252696250Y-165009983D02*
X252696250Y-165352517D01*
X200308750Y-164928733D02*
X200308750Y-165271267D01*
X201328750Y-164928733D02*
X201328750Y-165271267D01*
X165610000Y-164928733D02*
X165610000Y-165271267D01*
X164590000Y-164928733D02*
X164590000Y-165271267D01*
X125128750Y-165271267D02*
X125128750Y-164928733D01*
X124108750Y-165271267D02*
X124108750Y-164928733D01*
X100634983Y-172527500D02*
X100977517Y-172527500D01*
X100634983Y-173547500D02*
X100977517Y-173547500D01*
X99841233Y-158466250D02*
X100183767Y-158466250D01*
X99841233Y-157446250D02*
X100183767Y-157446250D01*
D12*
X91202380Y-122285238D02*
X92202380Y-122523333D01*
X91488095Y-122713809D01*
X92202380Y-122904285D01*
X91202380Y-123142380D01*
X92202380Y-124047142D02*
X92202380Y-123475714D01*
X92202380Y-123761428D02*
X91202380Y-123761428D01*
X91345238Y-123666190D01*
X91440476Y-123570952D01*
X91488095Y-123475714D01*
X94102380Y-119325714D02*
X94102380Y-118754285D01*
X94102380Y-119040000D02*
X93102380Y-119040000D01*
X93245238Y-118944761D01*
X93340476Y-118849523D01*
X93388095Y-118754285D01*
X116792261Y-123746130D02*
X116554166Y-124746130D01*
X116363690Y-124031845D01*
X116173214Y-124746130D01*
X115935119Y-123746130D01*
X115601785Y-123841369D02*
X115554166Y-123793750D01*
X115458928Y-123746130D01*
X115220833Y-123746130D01*
X115125595Y-123793750D01*
X115077976Y-123841369D01*
X115030357Y-123936607D01*
X115030357Y-124031845D01*
X115077976Y-124174702D01*
X115649404Y-124746130D01*
X115030357Y-124746130D01*
X119751785Y-126646130D02*
X120323214Y-126646130D01*
X120037500Y-126646130D02*
X120037500Y-125646130D01*
X120132738Y-125788988D01*
X120227976Y-125884226D01*
X120323214Y-125931845D01*
X154892261Y-123587380D02*
X154654166Y-124587380D01*
X154463690Y-123873095D01*
X154273214Y-124587380D01*
X154035119Y-123587380D01*
X153749404Y-123587380D02*
X153130357Y-123587380D01*
X153463690Y-123968333D01*
X153320833Y-123968333D01*
X153225595Y-124015952D01*
X153177976Y-124063571D01*
X153130357Y-124158809D01*
X153130357Y-124396904D01*
X153177976Y-124492142D01*
X153225595Y-124539761D01*
X153320833Y-124587380D01*
X153606547Y-124587380D01*
X153701785Y-124539761D01*
X153749404Y-124492142D01*
X157851785Y-126487380D02*
X158423214Y-126487380D01*
X158137500Y-126487380D02*
X158137500Y-125487380D01*
X158232738Y-125630238D01*
X158327976Y-125725476D01*
X158423214Y-125773095D01*
X192992261Y-123746130D02*
X192754166Y-124746130D01*
X192563690Y-124031845D01*
X192373214Y-124746130D01*
X192135119Y-123746130D01*
X191325595Y-124079464D02*
X191325595Y-124746130D01*
X191563690Y-123698511D02*
X191801785Y-124412797D01*
X191182738Y-124412797D01*
X195951785Y-126646130D02*
X196523214Y-126646130D01*
X196237500Y-126646130D02*
X196237500Y-125646130D01*
X196332738Y-125788988D01*
X196427976Y-125884226D01*
X196523214Y-125931845D01*
X231092261Y-123746130D02*
X230854166Y-124746130D01*
X230663690Y-124031845D01*
X230473214Y-124746130D01*
X230235119Y-123746130D01*
X229377976Y-123746130D02*
X229854166Y-123746130D01*
X229901785Y-124222321D01*
X229854166Y-124174702D01*
X229758928Y-124127083D01*
X229520833Y-124127083D01*
X229425595Y-124174702D01*
X229377976Y-124222321D01*
X229330357Y-124317559D01*
X229330357Y-124555654D01*
X229377976Y-124650892D01*
X229425595Y-124698511D01*
X229520833Y-124746130D01*
X229758928Y-124746130D01*
X229854166Y-124698511D01*
X229901785Y-124650892D01*
X234051785Y-126646130D02*
X234623214Y-126646130D01*
X234337500Y-126646130D02*
X234337500Y-125646130D01*
X234432738Y-125788988D01*
X234527976Y-125884226D01*
X234623214Y-125931845D01*
X269192261Y-123746130D02*
X268954166Y-124746130D01*
X268763690Y-124031845D01*
X268573214Y-124746130D01*
X268335119Y-123746130D01*
X267525595Y-123746130D02*
X267716071Y-123746130D01*
X267811309Y-123793750D01*
X267858928Y-123841369D01*
X267954166Y-123984226D01*
X268001785Y-124174702D01*
X268001785Y-124555654D01*
X267954166Y-124650892D01*
X267906547Y-124698511D01*
X267811309Y-124746130D01*
X267620833Y-124746130D01*
X267525595Y-124698511D01*
X267477976Y-124650892D01*
X267430357Y-124555654D01*
X267430357Y-124317559D01*
X267477976Y-124222321D01*
X267525595Y-124174702D01*
X267620833Y-124127083D01*
X267811309Y-124127083D01*
X267906547Y-124174702D01*
X267954166Y-124222321D01*
X268001785Y-124317559D01*
X272151785Y-126646130D02*
X272723214Y-126646130D01*
X272437500Y-126646130D02*
X272437500Y-125646130D01*
X272532738Y-125788988D01*
X272627976Y-125884226D01*
X272723214Y-125931845D01*
X307292261Y-123746130D02*
X307054166Y-124746130D01*
X306863690Y-124031845D01*
X306673214Y-124746130D01*
X306435119Y-123746130D01*
X306149404Y-123746130D02*
X305482738Y-123746130D01*
X305911309Y-124746130D01*
X310251785Y-126646130D02*
X310823214Y-126646130D01*
X310537500Y-126646130D02*
X310537500Y-125646130D01*
X310632738Y-125788988D01*
X310727976Y-125884226D01*
X310823214Y-125931845D01*
X333486011Y-123746130D02*
X333247916Y-124746130D01*
X333057440Y-124031845D01*
X332866964Y-124746130D01*
X332628869Y-123746130D01*
X332105059Y-124174702D02*
X332200297Y-124127083D01*
X332247916Y-124079464D01*
X332295535Y-123984226D01*
X332295535Y-123936607D01*
X332247916Y-123841369D01*
X332200297Y-123793750D01*
X332105059Y-123746130D01*
X331914583Y-123746130D01*
X331819345Y-123793750D01*
X331771726Y-123841369D01*
X331724107Y-123936607D01*
X331724107Y-123984226D01*
X331771726Y-124079464D01*
X331819345Y-124127083D01*
X331914583Y-124174702D01*
X332105059Y-124174702D01*
X332200297Y-124222321D01*
X332247916Y-124269940D01*
X332295535Y-124365178D01*
X332295535Y-124555654D01*
X332247916Y-124650892D01*
X332200297Y-124698511D01*
X332105059Y-124746130D01*
X331914583Y-124746130D01*
X331819345Y-124698511D01*
X331771726Y-124650892D01*
X331724107Y-124555654D01*
X331724107Y-124365178D01*
X331771726Y-124269940D01*
X331819345Y-124222321D01*
X331914583Y-124174702D01*
X336445535Y-126646130D02*
X337016964Y-126646130D01*
X336731250Y-126646130D02*
X336731250Y-125646130D01*
X336826488Y-125788988D01*
X336921726Y-125884226D01*
X337016964Y-125931845D01*
X335867261Y-142796130D02*
X335629166Y-143796130D01*
X335438690Y-143081845D01*
X335248214Y-143796130D01*
X335010119Y-142796130D01*
X334581547Y-143796130D02*
X334391071Y-143796130D01*
X334295833Y-143748511D01*
X334248214Y-143700892D01*
X334152976Y-143558035D01*
X334105357Y-143367559D01*
X334105357Y-142986607D01*
X334152976Y-142891369D01*
X334200595Y-142843750D01*
X334295833Y-142796130D01*
X334486309Y-142796130D01*
X334581547Y-142843750D01*
X334629166Y-142891369D01*
X334676785Y-142986607D01*
X334676785Y-143224702D01*
X334629166Y-143319940D01*
X334581547Y-143367559D01*
X334486309Y-143415178D01*
X334295833Y-143415178D01*
X334200595Y-143367559D01*
X334152976Y-143319940D01*
X334105357Y-143224702D01*
X338826785Y-145696130D02*
X339398214Y-145696130D01*
X339112500Y-145696130D02*
X339112500Y-144696130D01*
X339207738Y-144838988D01*
X339302976Y-144934226D01*
X339398214Y-144981845D01*
X341105952Y-168846130D02*
X340867857Y-169846130D01*
X340677380Y-169131845D01*
X340486904Y-169846130D01*
X340248809Y-168846130D01*
X339344047Y-169846130D02*
X339915476Y-169846130D01*
X339629761Y-169846130D02*
X339629761Y-168846130D01*
X339725000Y-168988988D01*
X339820238Y-169084226D01*
X339915476Y-169131845D01*
X338725000Y-168846130D02*
X338629761Y-168846130D01*
X338534523Y-168893750D01*
X338486904Y-168941369D01*
X338439285Y-169036607D01*
X338391666Y-169227083D01*
X338391666Y-169465178D01*
X338439285Y-169655654D01*
X338486904Y-169750892D01*
X338534523Y-169798511D01*
X338629761Y-169846130D01*
X338725000Y-169846130D01*
X338820238Y-169798511D01*
X338867857Y-169750892D01*
X338915476Y-169655654D01*
X338963095Y-169465178D01*
X338963095Y-169227083D01*
X338915476Y-169036607D01*
X338867857Y-168941369D01*
X338820238Y-168893750D01*
X338725000Y-168846130D01*
X335289285Y-167946130D02*
X335860714Y-167946130D01*
X335575000Y-167946130D02*
X335575000Y-166946130D01*
X335670238Y-167088988D01*
X335765476Y-167184226D01*
X335860714Y-167231845D01*
X303005952Y-168846130D02*
X302767857Y-169846130D01*
X302577380Y-169131845D01*
X302386904Y-169846130D01*
X302148809Y-168846130D01*
X301244047Y-169846130D02*
X301815476Y-169846130D01*
X301529761Y-169846130D02*
X301529761Y-168846130D01*
X301625000Y-168988988D01*
X301720238Y-169084226D01*
X301815476Y-169131845D01*
X300291666Y-169846130D02*
X300863095Y-169846130D01*
X300577380Y-169846130D02*
X300577380Y-168846130D01*
X300672619Y-168988988D01*
X300767857Y-169084226D01*
X300863095Y-169131845D01*
X297189285Y-167946130D02*
X297760714Y-167946130D01*
X297475000Y-167946130D02*
X297475000Y-166946130D01*
X297570238Y-167088988D01*
X297665476Y-167184226D01*
X297760714Y-167231845D01*
X248237202Y-168846130D02*
X247999107Y-169846130D01*
X247808630Y-169131845D01*
X247618154Y-169846130D01*
X247380059Y-168846130D01*
X246475297Y-169846130D02*
X247046726Y-169846130D01*
X246761011Y-169846130D02*
X246761011Y-168846130D01*
X246856250Y-168988988D01*
X246951488Y-169084226D01*
X247046726Y-169131845D01*
X246094345Y-168941369D02*
X246046726Y-168893750D01*
X245951488Y-168846130D01*
X245713392Y-168846130D01*
X245618154Y-168893750D01*
X245570535Y-168941369D01*
X245522916Y-169036607D01*
X245522916Y-169131845D01*
X245570535Y-169274702D01*
X246141964Y-169846130D01*
X245522916Y-169846130D01*
X242420535Y-167946130D02*
X242991964Y-167946130D01*
X242706250Y-167946130D02*
X242706250Y-166946130D01*
X242801488Y-167088988D01*
X242896726Y-167184226D01*
X242991964Y-167231845D01*
X195849702Y-168846130D02*
X195611607Y-169846130D01*
X195421130Y-169131845D01*
X195230654Y-169846130D01*
X194992559Y-168846130D01*
X194087797Y-169846130D02*
X194659226Y-169846130D01*
X194373511Y-169846130D02*
X194373511Y-168846130D01*
X194468750Y-168988988D01*
X194563988Y-169084226D01*
X194659226Y-169131845D01*
X193754464Y-168846130D02*
X193135416Y-168846130D01*
X193468750Y-169227083D01*
X193325892Y-169227083D01*
X193230654Y-169274702D01*
X193183035Y-169322321D01*
X193135416Y-169417559D01*
X193135416Y-169655654D01*
X193183035Y-169750892D01*
X193230654Y-169798511D01*
X193325892Y-169846130D01*
X193611607Y-169846130D01*
X193706845Y-169798511D01*
X193754464Y-169750892D01*
X190033035Y-167946130D02*
X190604464Y-167946130D01*
X190318750Y-167946130D02*
X190318750Y-166946130D01*
X190413988Y-167088988D01*
X190509226Y-167184226D01*
X190604464Y-167231845D01*
X160130952Y-168846130D02*
X159892857Y-169846130D01*
X159702380Y-169131845D01*
X159511904Y-169846130D01*
X159273809Y-168846130D01*
X158369047Y-169846130D02*
X158940476Y-169846130D01*
X158654761Y-169846130D02*
X158654761Y-168846130D01*
X158750000Y-168988988D01*
X158845238Y-169084226D01*
X158940476Y-169131845D01*
X157511904Y-169179464D02*
X157511904Y-169846130D01*
X157750000Y-168798511D02*
X157988095Y-169512797D01*
X157369047Y-169512797D01*
X154314285Y-167946130D02*
X154885714Y-167946130D01*
X154600000Y-167946130D02*
X154600000Y-166946130D01*
X154695238Y-167088988D01*
X154790476Y-167184226D01*
X154885714Y-167231845D01*
X119649702Y-168846130D02*
X119411607Y-169846130D01*
X119221130Y-169131845D01*
X119030654Y-169846130D01*
X118792559Y-168846130D01*
X117887797Y-169846130D02*
X118459226Y-169846130D01*
X118173511Y-169846130D02*
X118173511Y-168846130D01*
X118268750Y-168988988D01*
X118363988Y-169084226D01*
X118459226Y-169131845D01*
X116983035Y-168846130D02*
X117459226Y-168846130D01*
X117506845Y-169322321D01*
X117459226Y-169274702D01*
X117363988Y-169227083D01*
X117125892Y-169227083D01*
X117030654Y-169274702D01*
X116983035Y-169322321D01*
X116935416Y-169417559D01*
X116935416Y-169655654D01*
X116983035Y-169750892D01*
X117030654Y-169798511D01*
X117125892Y-169846130D01*
X117363988Y-169846130D01*
X117459226Y-169798511D01*
X117506845Y-169750892D01*
X113833035Y-167946130D02*
X114404464Y-167946130D01*
X114118750Y-167946130D02*
X114118750Y-166946130D01*
X114213988Y-167088988D01*
X114309226Y-167184226D01*
X114404464Y-167231845D01*
X91202380Y-167687797D02*
X92202380Y-167925892D01*
X91488095Y-168116369D01*
X92202380Y-168306845D01*
X91202380Y-168544940D01*
X92202380Y-169449702D02*
X92202380Y-168878273D01*
X92202380Y-169163988D02*
X91202380Y-169163988D01*
X91345238Y-169068750D01*
X91440476Y-168973511D01*
X91488095Y-168878273D01*
X91202380Y-170306845D02*
X91202380Y-170116369D01*
X91250000Y-170021130D01*
X91297619Y-169973511D01*
X91440476Y-169878273D01*
X91630952Y-169830654D01*
X92011904Y-169830654D01*
X92107142Y-169878273D01*
X92154761Y-169925892D01*
X92202380Y-170021130D01*
X92202380Y-170211607D01*
X92154761Y-170306845D01*
X92107142Y-170354464D01*
X92011904Y-170402083D01*
X91773809Y-170402083D01*
X91678571Y-170354464D01*
X91630952Y-170306845D01*
X91583333Y-170211607D01*
X91583333Y-170021130D01*
X91630952Y-169925892D01*
X91678571Y-169878273D01*
X91773809Y-169830654D01*
X94102380Y-165204464D02*
X94102380Y-164633035D01*
X94102380Y-164918750D02*
X93102380Y-164918750D01*
X93245238Y-164823511D01*
X93340476Y-164728273D01*
X93388095Y-164633035D01*
X91202380Y-152606547D02*
X92202380Y-152844642D01*
X91488095Y-153035119D01*
X92202380Y-153225595D01*
X91202380Y-153463690D01*
X92202380Y-154368452D02*
X92202380Y-153797023D01*
X92202380Y-154082738D02*
X91202380Y-154082738D01*
X91345238Y-153987500D01*
X91440476Y-153892261D01*
X91488095Y-153797023D01*
X91202380Y-154701785D02*
X91202380Y-155368452D01*
X92202380Y-154939880D01*
X94102380Y-150123214D02*
X94102380Y-149551785D01*
X94102380Y-149837500D02*
X93102380Y-149837500D01*
X93245238Y-149742261D01*
X93340476Y-149647023D01*
X93388095Y-149551785D01*
X93702142Y-130008333D02*
X93749761Y-129960714D01*
X93797380Y-129817857D01*
X93797380Y-129722619D01*
X93749761Y-129579761D01*
X93654523Y-129484523D01*
X93559285Y-129436904D01*
X93368809Y-129389285D01*
X93225952Y-129389285D01*
X93035476Y-129436904D01*
X92940238Y-129484523D01*
X92845000Y-129579761D01*
X92797380Y-129722619D01*
X92797380Y-129817857D01*
X92845000Y-129960714D01*
X92892619Y-130008333D01*
X93797380Y-130960714D02*
X93797380Y-130389285D01*
X93797380Y-130675000D02*
X92797380Y-130675000D01*
X92940238Y-130579761D01*
X93035476Y-130484523D01*
X93083095Y-130389285D01*
X109704166Y-126404642D02*
X109751785Y-126452261D01*
X109894642Y-126499880D01*
X109989880Y-126499880D01*
X110132738Y-126452261D01*
X110227976Y-126357023D01*
X110275595Y-126261785D01*
X110323214Y-126071309D01*
X110323214Y-125928452D01*
X110275595Y-125737976D01*
X110227976Y-125642738D01*
X110132738Y-125547500D01*
X109989880Y-125499880D01*
X109894642Y-125499880D01*
X109751785Y-125547500D01*
X109704166Y-125595119D01*
X109323214Y-125595119D02*
X109275595Y-125547500D01*
X109180357Y-125499880D01*
X108942261Y-125499880D01*
X108847023Y-125547500D01*
X108799404Y-125595119D01*
X108751785Y-125690357D01*
X108751785Y-125785595D01*
X108799404Y-125928452D01*
X109370833Y-126499880D01*
X108751785Y-126499880D01*
X147804166Y-126323392D02*
X147851785Y-126371011D01*
X147994642Y-126418630D01*
X148089880Y-126418630D01*
X148232738Y-126371011D01*
X148327976Y-126275773D01*
X148375595Y-126180535D01*
X148423214Y-125990059D01*
X148423214Y-125847202D01*
X148375595Y-125656726D01*
X148327976Y-125561488D01*
X148232738Y-125466250D01*
X148089880Y-125418630D01*
X147994642Y-125418630D01*
X147851785Y-125466250D01*
X147804166Y-125513869D01*
X147470833Y-125418630D02*
X146851785Y-125418630D01*
X147185119Y-125799583D01*
X147042261Y-125799583D01*
X146947023Y-125847202D01*
X146899404Y-125894821D01*
X146851785Y-125990059D01*
X146851785Y-126228154D01*
X146899404Y-126323392D01*
X146947023Y-126371011D01*
X147042261Y-126418630D01*
X147327976Y-126418630D01*
X147423214Y-126371011D01*
X147470833Y-126323392D01*
X185904166Y-126323392D02*
X185951785Y-126371011D01*
X186094642Y-126418630D01*
X186189880Y-126418630D01*
X186332738Y-126371011D01*
X186427976Y-126275773D01*
X186475595Y-126180535D01*
X186523214Y-125990059D01*
X186523214Y-125847202D01*
X186475595Y-125656726D01*
X186427976Y-125561488D01*
X186332738Y-125466250D01*
X186189880Y-125418630D01*
X186094642Y-125418630D01*
X185951785Y-125466250D01*
X185904166Y-125513869D01*
X185047023Y-125751964D02*
X185047023Y-126418630D01*
X185285119Y-125371011D02*
X185523214Y-126085297D01*
X184904166Y-126085297D01*
X224004166Y-125688392D02*
X224051785Y-125736011D01*
X224194642Y-125783630D01*
X224289880Y-125783630D01*
X224432738Y-125736011D01*
X224527976Y-125640773D01*
X224575595Y-125545535D01*
X224623214Y-125355059D01*
X224623214Y-125212202D01*
X224575595Y-125021726D01*
X224527976Y-124926488D01*
X224432738Y-124831250D01*
X224289880Y-124783630D01*
X224194642Y-124783630D01*
X224051785Y-124831250D01*
X224004166Y-124878869D01*
X223099404Y-124783630D02*
X223575595Y-124783630D01*
X223623214Y-125259821D01*
X223575595Y-125212202D01*
X223480357Y-125164583D01*
X223242261Y-125164583D01*
X223147023Y-125212202D01*
X223099404Y-125259821D01*
X223051785Y-125355059D01*
X223051785Y-125593154D01*
X223099404Y-125688392D01*
X223147023Y-125736011D01*
X223242261Y-125783630D01*
X223480357Y-125783630D01*
X223575595Y-125736011D01*
X223623214Y-125688392D01*
X262104166Y-126323392D02*
X262151785Y-126371011D01*
X262294642Y-126418630D01*
X262389880Y-126418630D01*
X262532738Y-126371011D01*
X262627976Y-126275773D01*
X262675595Y-126180535D01*
X262723214Y-125990059D01*
X262723214Y-125847202D01*
X262675595Y-125656726D01*
X262627976Y-125561488D01*
X262532738Y-125466250D01*
X262389880Y-125418630D01*
X262294642Y-125418630D01*
X262151785Y-125466250D01*
X262104166Y-125513869D01*
X261247023Y-125418630D02*
X261437500Y-125418630D01*
X261532738Y-125466250D01*
X261580357Y-125513869D01*
X261675595Y-125656726D01*
X261723214Y-125847202D01*
X261723214Y-126228154D01*
X261675595Y-126323392D01*
X261627976Y-126371011D01*
X261532738Y-126418630D01*
X261342261Y-126418630D01*
X261247023Y-126371011D01*
X261199404Y-126323392D01*
X261151785Y-126228154D01*
X261151785Y-125990059D01*
X261199404Y-125894821D01*
X261247023Y-125847202D01*
X261342261Y-125799583D01*
X261532738Y-125799583D01*
X261627976Y-125847202D01*
X261675595Y-125894821D01*
X261723214Y-125990059D01*
X300204166Y-126323392D02*
X300251785Y-126371011D01*
X300394642Y-126418630D01*
X300489880Y-126418630D01*
X300632738Y-126371011D01*
X300727976Y-126275773D01*
X300775595Y-126180535D01*
X300823214Y-125990059D01*
X300823214Y-125847202D01*
X300775595Y-125656726D01*
X300727976Y-125561488D01*
X300632738Y-125466250D01*
X300489880Y-125418630D01*
X300394642Y-125418630D01*
X300251785Y-125466250D01*
X300204166Y-125513869D01*
X299870833Y-125418630D02*
X299204166Y-125418630D01*
X299632738Y-126418630D01*
X326397916Y-126323392D02*
X326445535Y-126371011D01*
X326588392Y-126418630D01*
X326683630Y-126418630D01*
X326826488Y-126371011D01*
X326921726Y-126275773D01*
X326969345Y-126180535D01*
X327016964Y-125990059D01*
X327016964Y-125847202D01*
X326969345Y-125656726D01*
X326921726Y-125561488D01*
X326826488Y-125466250D01*
X326683630Y-125418630D01*
X326588392Y-125418630D01*
X326445535Y-125466250D01*
X326397916Y-125513869D01*
X325826488Y-125847202D02*
X325921726Y-125799583D01*
X325969345Y-125751964D01*
X326016964Y-125656726D01*
X326016964Y-125609107D01*
X325969345Y-125513869D01*
X325921726Y-125466250D01*
X325826488Y-125418630D01*
X325636011Y-125418630D01*
X325540773Y-125466250D01*
X325493154Y-125513869D01*
X325445535Y-125609107D01*
X325445535Y-125656726D01*
X325493154Y-125751964D01*
X325540773Y-125799583D01*
X325636011Y-125847202D01*
X325826488Y-125847202D01*
X325921726Y-125894821D01*
X325969345Y-125942440D01*
X326016964Y-126037678D01*
X326016964Y-126228154D01*
X325969345Y-126323392D01*
X325921726Y-126371011D01*
X325826488Y-126418630D01*
X325636011Y-126418630D01*
X325540773Y-126371011D01*
X325493154Y-126323392D01*
X325445535Y-126228154D01*
X325445535Y-126037678D01*
X325493154Y-125942440D01*
X325540773Y-125894821D01*
X325636011Y-125847202D01*
X328779166Y-145535892D02*
X328826785Y-145583511D01*
X328969642Y-145631130D01*
X329064880Y-145631130D01*
X329207738Y-145583511D01*
X329302976Y-145488273D01*
X329350595Y-145393035D01*
X329398214Y-145202559D01*
X329398214Y-145059702D01*
X329350595Y-144869226D01*
X329302976Y-144773988D01*
X329207738Y-144678750D01*
X329064880Y-144631130D01*
X328969642Y-144631130D01*
X328826785Y-144678750D01*
X328779166Y-144726369D01*
X328302976Y-145631130D02*
X328112500Y-145631130D01*
X328017261Y-145583511D01*
X327969642Y-145535892D01*
X327874404Y-145393035D01*
X327826785Y-145202559D01*
X327826785Y-144821607D01*
X327874404Y-144726369D01*
X327922023Y-144678750D01*
X328017261Y-144631130D01*
X328207738Y-144631130D01*
X328302976Y-144678750D01*
X328350595Y-144726369D01*
X328398214Y-144821607D01*
X328398214Y-145059702D01*
X328350595Y-145154940D01*
X328302976Y-145202559D01*
X328207738Y-145250178D01*
X328017261Y-145250178D01*
X327922023Y-145202559D01*
X327874404Y-145154940D01*
X327826785Y-145059702D01*
X334398857Y-169503392D02*
X334446476Y-169551011D01*
X334589333Y-169598630D01*
X334684571Y-169598630D01*
X334827428Y-169551011D01*
X334922666Y-169455773D01*
X334970285Y-169360535D01*
X335017904Y-169170059D01*
X335017904Y-169027202D01*
X334970285Y-168836726D01*
X334922666Y-168741488D01*
X334827428Y-168646250D01*
X334684571Y-168598630D01*
X334589333Y-168598630D01*
X334446476Y-168646250D01*
X334398857Y-168693869D01*
X333446476Y-169598630D02*
X334017904Y-169598630D01*
X333732190Y-169598630D02*
X333732190Y-168598630D01*
X333827428Y-168741488D01*
X333922666Y-168836726D01*
X334017904Y-168884345D01*
X332827428Y-168598630D02*
X332732190Y-168598630D01*
X332636952Y-168646250D01*
X332589333Y-168693869D01*
X332541714Y-168789107D01*
X332494095Y-168979583D01*
X332494095Y-169217678D01*
X332541714Y-169408154D01*
X332589333Y-169503392D01*
X332636952Y-169551011D01*
X332732190Y-169598630D01*
X332827428Y-169598630D01*
X332922666Y-169551011D01*
X332970285Y-169503392D01*
X333017904Y-169408154D01*
X333065523Y-169217678D01*
X333065523Y-168979583D01*
X333017904Y-168789107D01*
X332970285Y-168693869D01*
X332922666Y-168646250D01*
X332827428Y-168598630D01*
X308617857Y-167997142D02*
X308665476Y-168044761D01*
X308808333Y-168092380D01*
X308903571Y-168092380D01*
X309046428Y-168044761D01*
X309141666Y-167949523D01*
X309189285Y-167854285D01*
X309236904Y-167663809D01*
X309236904Y-167520952D01*
X309189285Y-167330476D01*
X309141666Y-167235238D01*
X309046428Y-167140000D01*
X308903571Y-167092380D01*
X308808333Y-167092380D01*
X308665476Y-167140000D01*
X308617857Y-167187619D01*
X307665476Y-168092380D02*
X308236904Y-168092380D01*
X307951190Y-168092380D02*
X307951190Y-167092380D01*
X308046428Y-167235238D01*
X308141666Y-167330476D01*
X308236904Y-167378095D01*
X306713095Y-168092380D02*
X307284523Y-168092380D01*
X306998809Y-168092380D02*
X306998809Y-167092380D01*
X307094047Y-167235238D01*
X307189285Y-167330476D01*
X307284523Y-167378095D01*
X253849107Y-168078392D02*
X253896726Y-168126011D01*
X254039583Y-168173630D01*
X254134821Y-168173630D01*
X254277678Y-168126011D01*
X254372916Y-168030773D01*
X254420535Y-167935535D01*
X254468154Y-167745059D01*
X254468154Y-167602202D01*
X254420535Y-167411726D01*
X254372916Y-167316488D01*
X254277678Y-167221250D01*
X254134821Y-167173630D01*
X254039583Y-167173630D01*
X253896726Y-167221250D01*
X253849107Y-167268869D01*
X252896726Y-168173630D02*
X253468154Y-168173630D01*
X253182440Y-168173630D02*
X253182440Y-167173630D01*
X253277678Y-167316488D01*
X253372916Y-167411726D01*
X253468154Y-167459345D01*
X252515773Y-167268869D02*
X252468154Y-167221250D01*
X252372916Y-167173630D01*
X252134821Y-167173630D01*
X252039583Y-167221250D01*
X251991964Y-167268869D01*
X251944345Y-167364107D01*
X251944345Y-167459345D01*
X251991964Y-167602202D01*
X252563392Y-168173630D01*
X251944345Y-168173630D01*
X201461607Y-167997142D02*
X201509226Y-168044761D01*
X201652083Y-168092380D01*
X201747321Y-168092380D01*
X201890178Y-168044761D01*
X201985416Y-167949523D01*
X202033035Y-167854285D01*
X202080654Y-167663809D01*
X202080654Y-167520952D01*
X202033035Y-167330476D01*
X201985416Y-167235238D01*
X201890178Y-167140000D01*
X201747321Y-167092380D01*
X201652083Y-167092380D01*
X201509226Y-167140000D01*
X201461607Y-167187619D01*
X200509226Y-168092380D02*
X201080654Y-168092380D01*
X200794940Y-168092380D02*
X200794940Y-167092380D01*
X200890178Y-167235238D01*
X200985416Y-167330476D01*
X201080654Y-167378095D01*
X200175892Y-167092380D02*
X199556845Y-167092380D01*
X199890178Y-167473333D01*
X199747321Y-167473333D01*
X199652083Y-167520952D01*
X199604464Y-167568571D01*
X199556845Y-167663809D01*
X199556845Y-167901904D01*
X199604464Y-167997142D01*
X199652083Y-168044761D01*
X199747321Y-168092380D01*
X200033035Y-168092380D01*
X200128273Y-168044761D01*
X200175892Y-167997142D01*
X165742857Y-167997142D02*
X165790476Y-168044761D01*
X165933333Y-168092380D01*
X166028571Y-168092380D01*
X166171428Y-168044761D01*
X166266666Y-167949523D01*
X166314285Y-167854285D01*
X166361904Y-167663809D01*
X166361904Y-167520952D01*
X166314285Y-167330476D01*
X166266666Y-167235238D01*
X166171428Y-167140000D01*
X166028571Y-167092380D01*
X165933333Y-167092380D01*
X165790476Y-167140000D01*
X165742857Y-167187619D01*
X164790476Y-168092380D02*
X165361904Y-168092380D01*
X165076190Y-168092380D02*
X165076190Y-167092380D01*
X165171428Y-167235238D01*
X165266666Y-167330476D01*
X165361904Y-167378095D01*
X163933333Y-167425714D02*
X163933333Y-168092380D01*
X164171428Y-167044761D02*
X164409523Y-167759047D01*
X163790476Y-167759047D01*
X125261607Y-162917142D02*
X125309226Y-162964761D01*
X125452083Y-163012380D01*
X125547321Y-163012380D01*
X125690178Y-162964761D01*
X125785416Y-162869523D01*
X125833035Y-162774285D01*
X125880654Y-162583809D01*
X125880654Y-162440952D01*
X125833035Y-162250476D01*
X125785416Y-162155238D01*
X125690178Y-162060000D01*
X125547321Y-162012380D01*
X125452083Y-162012380D01*
X125309226Y-162060000D01*
X125261607Y-162107619D01*
X124309226Y-163012380D02*
X124880654Y-163012380D01*
X124594940Y-163012380D02*
X124594940Y-162012380D01*
X124690178Y-162155238D01*
X124785416Y-162250476D01*
X124880654Y-162298095D01*
X123404464Y-162012380D02*
X123880654Y-162012380D01*
X123928273Y-162488571D01*
X123880654Y-162440952D01*
X123785416Y-162393333D01*
X123547321Y-162393333D01*
X123452083Y-162440952D01*
X123404464Y-162488571D01*
X123356845Y-162583809D01*
X123356845Y-162821904D01*
X123404464Y-162917142D01*
X123452083Y-162964761D01*
X123547321Y-163012380D01*
X123785416Y-163012380D01*
X123880654Y-162964761D01*
X123928273Y-162917142D01*
X103703392Y-172394642D02*
X103751011Y-172347023D01*
X103798630Y-172204166D01*
X103798630Y-172108928D01*
X103751011Y-171966071D01*
X103655773Y-171870833D01*
X103560535Y-171823214D01*
X103370059Y-171775595D01*
X103227202Y-171775595D01*
X103036726Y-171823214D01*
X102941488Y-171870833D01*
X102846250Y-171966071D01*
X102798630Y-172108928D01*
X102798630Y-172204166D01*
X102846250Y-172347023D01*
X102893869Y-172394642D01*
X103798630Y-173347023D02*
X103798630Y-172775595D01*
X103798630Y-173061309D02*
X102798630Y-173061309D01*
X102941488Y-172966071D01*
X103036726Y-172870833D01*
X103084345Y-172775595D01*
X102798630Y-174204166D02*
X102798630Y-174013690D01*
X102846250Y-173918452D01*
X102893869Y-173870833D01*
X103036726Y-173775595D01*
X103227202Y-173727976D01*
X103608154Y-173727976D01*
X103703392Y-173775595D01*
X103751011Y-173823214D01*
X103798630Y-173918452D01*
X103798630Y-174108928D01*
X103751011Y-174204166D01*
X103703392Y-174251785D01*
X103608154Y-174299404D01*
X103370059Y-174299404D01*
X103274821Y-174251785D01*
X103227202Y-174204166D01*
X103179583Y-174108928D01*
X103179583Y-173918452D01*
X103227202Y-173823214D01*
X103274821Y-173775595D01*
X103370059Y-173727976D01*
X100655357Y-159743392D02*
X100702976Y-159791011D01*
X100845833Y-159838630D01*
X100941071Y-159838630D01*
X101083928Y-159791011D01*
X101179166Y-159695773D01*
X101226785Y-159600535D01*
X101274404Y-159410059D01*
X101274404Y-159267202D01*
X101226785Y-159076726D01*
X101179166Y-158981488D01*
X101083928Y-158886250D01*
X100941071Y-158838630D01*
X100845833Y-158838630D01*
X100702976Y-158886250D01*
X100655357Y-158933869D01*
X99702976Y-159838630D02*
X100274404Y-159838630D01*
X99988690Y-159838630D02*
X99988690Y-158838630D01*
X100083928Y-158981488D01*
X100179166Y-159076726D01*
X100274404Y-159124345D01*
X99369642Y-158838630D02*
X98702976Y-158838630D01*
X99131547Y-159838630D01*
M02*
